<svg width="20" height="30" viewBox="0 0 20 30" fill="none" xmlns="http://www.w3.org/2000/svg">
<path d="M18.6562 16.5938L5.90625 29.3438C5.46875 29.7812 4.9375 30 4.3125 30C3.6875 30 3.15625 29.7812 2.71875 29.3438L0.65625 27.1875C0.21875 26.75 0 26.2188 0 25.5938C0 24.9688 0.21875 24.4375 0.65625 24L9.65625 15L0.65625 6C0.21875 5.5625 0 5.03125 0 4.40625C0 3.78125 0.21875 3.25 0.65625 2.8125L2.71875 0.65625C3.15625 0.21875 3.6875 0 4.3125 0C4.9375 0 5.46875 0.21875 5.90625 0.65625L18.6562 13.4062C19.0938 13.8438 19.3125 14.375 19.3125 15C19.3125 15.625 19.0938 16.1562 18.6562 16.5938Z" fill="#FFD200"/>
</svg>
