<svg width="72" height="72" viewBox="0 0 72 72" fill="none" xmlns="http://www.w3.org/2000/svg">
<path d="M35.8742 9.14906C36.6564 9.14906 37.2905 8.51498 37.2905 7.73283V1.41623C37.2905 0.634078 36.6564 0 35.8742 0C35.0921 0 34.458 0.634078 34.458 1.41623V7.73283C34.4581 8.51498 35.0922 9.14906 35.8742 9.14906Z" fill="#021B3A"/>
<path d="M70.4928 48.6543L67.9909 46.1595C67.1009 45.2706 65.9147 44.7809 64.6508 44.7809C63.8426 44.7809 63.0668 44.982 62.3793 45.3587L57.6647 40.6498L57.8943 40.4204C59.8069 38.504 59.8062 35.3898 57.8942 33.4799C57.2109 32.7953 56.3583 32.3388 55.4289 32.1468C55.5568 31.7051 55.6242 31.2424 55.6242 30.7689C55.6242 29.4534 55.1132 28.2198 54.1881 27.2986C53.5047 26.614 52.6522 26.1575 51.7228 25.9654C51.8508 25.5237 51.9182 25.0612 51.9182 24.5876C51.9182 23.2719 51.4071 22.0385 50.4806 21.1158C49.7808 20.4169 48.9206 19.9745 48.0174 19.7862C48.5005 18.1203 48.0877 16.2459 46.7771 14.933C45.6861 13.8467 44.2057 13.3798 42.7791 13.5311L33.4367 11.7627C32.0119 11.4925 30.2325 11.3137 29.1094 12.3382C29.0385 12.4029 28.9662 12.4773 28.895 12.5601C27.1535 11.9253 25.1224 12.3033 23.7278 13.6963C22.8026 14.6204 22.293 15.8534 22.293 17.1682C22.293 17.6418 22.3601 18.1044 22.4879 18.5462C21.5595 18.7382 20.708 19.1941 20.0269 19.8764C19.0999 20.7996 18.5888 22.0312 18.5878 23.3445C18.5874 23.8192 18.6547 24.2833 18.7833 24.7263C17.8544 24.9178 17.0024 25.3728 16.3192 26.0552C15.3922 26.9812 14.8818 28.2149 14.8818 29.529C14.8818 30.5356 15.1823 31.4945 15.7391 32.3045C15.036 32.5429 14.392 32.9396 13.8527 33.4783C11.9388 35.3898 11.9381 38.5041 13.8539 40.4234L14.0827 40.6512L9.36757 45.3578C7.61524 44.5327 5.45623 44.8418 4.01018 46.286L1.50677 48.7824C0.616336 49.6717 0.126117 50.858 0.125977 52.1227C0.125977 53.3875 0.616336 54.5739 1.50677 55.4634L4.63104 58.5838C5.1844 59.1366 6.08116 59.1361 6.63382 58.5827C7.18662 58.0293 7.18605 57.1326 6.6327 56.5799L3.50843 53.4595C3.15377 53.1052 2.95845 52.6305 2.95845 52.1228C2.95845 51.6153 3.15377 51.1407 3.50759 50.7873L6.01113 48.2908C6.63663 47.666 7.59401 47.5729 8.32104 48.0076C8.37223 48.0845 8.43143 48.1576 8.49921 48.2255C8.62057 48.3472 8.75909 48.4404 8.90618 48.5086L23.263 62.8443C23.3312 62.993 23.4249 63.1329 23.5471 63.2553C23.666 63.3744 23.8017 63.4665 23.9457 63.5343C24.2494 63.8775 24.4171 64.316 24.4171 64.7837C24.4171 65.2914 24.2218 65.766 23.8671 66.1202L21.3661 68.6183C20.6271 69.354 19.4251 69.3539 18.6883 68.6205L15.5641 65.496C15.011 64.9429 14.1144 64.9429 13.5613 65.496C13.0082 66.049 13.0082 66.9457 13.5613 67.4988L16.6878 70.6255C17.6081 71.542 18.8166 72 20.0257 72C21.2351 72 22.445 71.5413 23.3664 70.624L25.8689 68.1244C26.7594 67.2349 27.2497 66.0486 27.2497 64.7837C27.2497 63.881 26.9987 63.019 26.532 62.2757L31.8386 56.9755C31.8442 56.9697 31.8499 56.964 31.8556 56.9582C32.4633 56.33 34.1554 56.4476 35.7919 56.5612C36.9545 56.6421 38.2508 56.7319 39.5173 56.586L45.3285 62.3903C44.952 63.0767 44.7511 63.8515 44.7511 64.6584C44.7511 65.9219 45.2414 67.1075 46.1319 67.997L48.6346 70.4966C49.5244 71.3855 50.7106 71.8751 51.9746 71.8751C53.2383 71.8751 54.4245 71.3856 55.3145 70.4966L70.4937 55.3358C71.3842 54.4465 71.8745 53.2602 71.8745 51.9954C71.8744 50.7308 71.384 49.5445 70.4928 48.6543ZM32.9093 14.5457L39.0528 15.7085L35.3756 19.3843C34.8068 19.111 34.0271 18.601 33.1719 17.7829C32.0012 16.663 31.1637 15.3699 31.0875 14.5634C31.0874 14.563 31.0874 14.5626 31.0874 14.5622C31.0874 14.562 31.0872 14.5619 31.0872 14.5617C31.0818 14.5038 31.0804 14.4575 31.0811 14.4222C31.2663 14.3772 31.7582 14.3273 32.9093 14.5457ZM25.7293 15.7004C26.4468 14.9836 27.5614 14.9009 28.3721 15.4499C28.8315 17.3762 30.4747 19.1221 31.2139 19.8294C31.7618 20.3537 33.5198 21.9254 35.2942 22.3574C35.5342 22.7015 35.6649 23.1117 35.6649 23.5446C35.6649 24.1022 35.4504 24.6235 35.0596 25.0138C34.6699 25.4042 34.1478 25.6191 33.5892 25.6191C33.0305 25.6191 32.5084 25.4042 32.1169 25.012L32.1168 25.0119L32.1161 25.0112L25.7291 18.6358C25.3398 18.247 25.1253 17.7257 25.1253 17.1682C25.1254 16.6106 25.3399 16.0893 25.7293 15.7004ZM22.0286 21.8804C22.4183 21.4902 22.9399 21.2752 23.4976 21.2752C24.056 21.2752 24.5793 21.4906 24.9715 21.8824L30.1144 27.0151C30.9243 27.8262 30.9243 29.1461 30.1172 29.9544C29.7254 30.3446 29.2015 30.5595 28.6419 30.5595C28.0824 30.5595 27.5584 30.3446 27.1683 29.9561L27.1682 29.956L23.2665 26.0552C23.2605 26.0491 23.2539 26.0435 23.2477 26.0373L22.0271 24.8172C21.6354 24.426 21.4198 23.9037 21.4203 23.3466C21.4208 22.7913 21.6357 22.2716 22.0286 21.8804ZM18.3209 28.0592C18.7108 27.6698 19.2335 27.4554 19.7929 27.4554C20.3477 27.4554 20.8659 27.6667 21.2542 28.0494L25.1678 31.9611C25.558 32.3498 25.773 32.8706 25.773 33.4274C25.773 33.9842 25.558 34.5049 25.1662 34.8951C24.7764 35.2844 24.2543 35.4988 23.6959 35.4988C23.1366 35.4988 22.6128 35.2838 22.2224 34.8951L20.8036 33.4781C20.8033 33.4776 20.8029 33.4773 20.8026 33.4771L18.321 30.9984C17.9298 30.6076 17.7144 30.0856 17.7144 29.5287C17.7144 28.972 17.9298 28.4499 18.3209 28.0592ZM15.8543 35.4822C16.246 35.091 16.7694 34.8756 17.3281 34.8756C17.8866 34.8756 18.4099 35.0909 18.8014 35.4818L20.2221 36.9009C20.6125 37.2895 20.8274 37.8103 20.8274 38.3672C20.8274 38.924 20.6124 39.4446 20.2192 39.8364C19.8295 40.2266 19.3074 40.4417 18.7488 40.4417C18.1901 40.4417 17.668 40.2268 17.2755 39.8336L17.0976 39.6564C17.0952 39.654 17.0934 39.6515 17.0911 39.6492C17.0884 39.6467 17.0856 39.6445 17.083 39.6419L15.8557 38.4195C15.0459 37.6079 15.0452 36.2904 15.8543 35.4822ZM44.7154 51.5779C44.1626 51.0244 43.2658 51.024 42.7126 51.5766L41.4526 52.8351C40.2553 54.0324 38.0859 53.8816 35.9879 53.7361C33.7096 53.5777 31.3537 53.4143 29.8292 54.9795L24.6127 60.1896L11.5679 47.164L16.1844 42.5558C16.9474 43.0235 17.8279 43.2743 18.7491 43.2743C20.0652 43.2743 21.2993 42.7641 22.2211 41.8406C23.1491 40.9164 23.6603 39.683 23.6603 38.3673C23.6603 38.3551 23.6594 38.343 23.6594 38.3307C23.6717 38.3309 23.6839 38.3316 23.6961 38.3316C25.0104 38.3316 26.2436 37.8229 27.1666 36.901C28.0946 35.9768 28.6058 34.7433 28.6058 33.4277C28.6058 33.4155 28.6049 33.4034 28.6049 33.3911C28.6173 33.3911 28.6297 33.392 28.6422 33.392C29.9561 33.392 31.1899 32.8839 32.1191 31.9585C33.0838 30.9922 33.561 29.7201 33.5518 28.4507C33.5645 28.4508 33.5771 28.4515 33.5898 28.4515C34.9059 28.4514 36.1399 27.9414 37.0631 27.0165C37.9883 26.0924 38.4979 24.8594 38.4979 23.5446C38.4979 22.625 38.2479 21.746 37.7817 20.9845L41.8279 16.94C42.1294 16.6398 42.5012 16.4513 42.8909 16.3735C42.9331 16.369 42.9747 16.3623 43.0159 16.3541C43.6411 16.2679 44.2977 16.4609 44.7758 16.937C45.5857 17.7483 45.5857 19.0682 44.7788 19.8765L43.5465 21.1038C43.5424 21.1078 43.538 21.1115 43.534 21.1156L42.1146 22.5325C41.5611 23.0852 41.5606 23.9819 42.1134 24.5353C42.6663 25.0888 43.5629 25.0892 44.1161 24.5366L45.3534 23.301C45.3536 23.3007 45.3539 23.3005 45.3542 23.3002L45.5412 23.1138C46.3533 22.3092 47.669 22.3109 48.4803 23.121C48.8707 23.5097 49.0857 24.0304 49.0857 24.5873C49.0857 25.144 48.8707 25.6648 48.4772 26.0566L47.2379 27.2984C47.2377 27.2986 47.2376 27.2987 47.2375 27.299L45.8183 28.7124C45.2641 29.2644 45.2622 30.1611 45.8142 30.7152C46.3661 31.2694 47.2628 31.2711 47.817 30.7193L49.2426 29.2994C49.6323 28.909 50.1544 28.6941 50.713 28.6941C51.2717 28.6941 51.794 28.909 52.1865 29.3022C52.5768 29.691 52.7917 30.2118 52.7917 30.7686C52.7917 31.3254 52.5769 31.8461 52.1842 32.237L49.7134 34.7088C49.1605 35.262 49.1606 36.1586 49.7137 36.7116C49.9903 36.988 50.3526 37.1261 50.715 37.1261C51.0775 37.1261 51.44 36.9878 51.7165 36.7112L52.9274 35.4998C52.9343 35.4932 52.9418 35.4874 52.9487 35.4805C53.3383 35.0902 53.8605 34.8753 54.419 34.8753C54.9777 34.8753 55.4999 35.0902 55.891 35.482C56.7 36.2901 56.6993 37.6078 55.891 38.4175L54.6598 39.6473C54.6594 39.6477 54.6588 39.6481 54.6584 39.6485C54.658 39.649 54.6575 39.6495 54.6571 39.6499L52.703 41.6017C52.1496 42.1545 52.1491 43.0512 52.7017 43.6046C52.9783 43.8815 53.3411 44.02 53.7038 44.02C54.0659 44.02 54.4282 43.8819 54.7046 43.6059L55.6605 42.6512L60.2416 47.227L47.1979 60.2547L42.5244 55.5868C42.8502 55.3773 43.162 55.1309 43.4546 54.8383L44.7139 53.5805C45.2676 53.028 45.2681 52.1313 44.7154 51.5779ZM68.4919 53.3318L53.3127 68.4925C52.9577 68.8472 52.4823 69.0425 51.9744 69.0425C51.4665 69.0425 50.9912 68.8472 50.6359 68.4924L48.1332 65.9928C47.7786 65.6387 47.5833 65.1648 47.5833 64.6584C47.5833 64.1522 47.7786 63.6783 48.1332 63.324L63.3124 48.1632C63.6677 47.8084 64.1428 47.6131 64.6509 47.6131C65.1589 47.6131 65.6342 47.8084 65.9902 48.1641L68.4921 50.6589C68.8467 51.0131 69.0421 51.4876 69.0421 51.9953C69.0419 52.5031 68.8466 52.9777 68.4919 53.3318Z" fill="#021B3A"/>
<path d="M17.0686 7.95515C17.3451 8.23105 17.7071 8.36886 18.069 8.36886C18.4319 8.36886 18.7948 8.23021 19.0714 7.95304C19.6239 7.3994 19.6231 6.50277 19.0694 5.95025L13.9088 0.799864C13.3553 0.247348 12.4585 0.248051 11.906 0.801833C11.3535 1.35547 11.3543 2.2521 11.908 2.80461L17.0686 7.95515Z" fill="#021B3A"/>
<path d="M53.6799 8.36881C54.042 8.36881 54.4042 8.23072 54.6807 7.95467L59.8374 2.80414C60.3908 2.25148 60.3914 1.35472 59.8386 0.801358C59.2859 0.247998 58.3893 0.247436 57.8358 0.800233L52.679 5.95076C52.1257 6.50342 52.1251 7.40019 52.6779 7.95355C52.9545 8.23044 53.3172 8.36881 53.6799 8.36881Z" fill="#021B3A"/>
<path d="M8.83402 60.9192C8.28572 61.477 8.29331 62.3737 8.85117 62.922L8.85525 62.926C9.13045 63.1965 9.48778 63.3312 9.84497 63.3312C10.2116 63.3312 10.5782 63.1894 10.8559 62.9068C11.4042 62.3491 11.3945 61.4504 10.8368 60.9021C10.2792 60.3538 9.38259 60.3615 8.83402 60.9192Z" fill="#021B3A"/>
<path d="M48.1786 49.5376C48.394 49.5376 48.6126 49.4885 48.8178 49.3852C49.5161 49.0329 49.7966 48.1813 49.4445 47.4829C49.0923 46.7846 48.2405 46.5039 47.5423 46.8561L47.5344 46.8601C46.8361 47.2123 46.5595 48.062 46.9116 48.7604C47.1602 49.2537 47.6603 49.5376 48.1786 49.5376Z" fill="#021B3A"/>
</svg>
