<svg width="75" height="75" viewBox="0 0 75 75" fill="none" xmlns="http://www.w3.org/2000/svg">
<g clip-path="url(#clip0)">
<path d="M54.6875 75C43.4875 75 34.375 65.8875 34.375 54.6875C34.375 43.4875 43.4875 34.375 54.6875 34.375C65.8875 34.375 75 43.4875 75 54.6875C75 65.8875 65.8875 75 54.6875 75ZM54.6875 37.5C45.2094 37.5 37.5 45.2094 37.5 54.6875C37.5 64.1656 45.2094 71.875 54.6875 71.875C64.1656 71.875 71.875 64.1656 71.875 54.6875C71.875 45.2094 64.1656 37.5 54.6875 37.5Z" fill="#021B3A"/>
<path d="M26.5625 65.625H7.8125C3.50625 65.625 0 62.1188 0 57.8125V7.8125C0 3.50625 3.50625 0 7.8125 0H42.1875C46.4938 0 50 3.50625 50 7.8125V26.5625C50 27.425 49.3 28.125 48.4375 28.125C47.575 28.125 46.875 27.425 46.875 26.5625V7.8125C46.875 5.22813 44.7719 3.125 42.1875 3.125H7.8125C5.22813 3.125 3.125 5.22813 3.125 7.8125V57.8125C3.125 60.3969 5.22813 62.5 7.8125 62.5H26.5625C27.425 62.5 28.125 63.2 28.125 64.0625C28.125 64.925 27.425 65.625 26.5625 65.625Z" fill="#021B3A"/>
<path d="M13 31.6923L20.5345 39L36 24" stroke="#021B3A" stroke-width="3" stroke-linecap="round" stroke-linejoin="round"/>
<path d="M48.3067 57.7253H49.6507V58.64H48.3067V61.0853H49.6507V62H52.9173V61.0853H59.1333V58.64H52.9173V57.7253H54.6533C55.568 57.7253 56.296 57.576 56.9493 57.296C57.6027 57.016 58.1253 56.624 58.5733 56.176C59.3013 55.4293 59.6747 54.2907 59.6747 53.0773C59.6747 51.5653 59.1333 50.4827 58.144 49.8107C57.2667 49.2133 56.2027 48.952 54.728 48.952H49.6507V55.28H48.3067V57.7253ZM56.3147 53.152C56.3147 53.9547 56.2027 54.3653 55.7547 54.7947C55.5307 55.0187 55.12 55.1867 54.7467 55.2427C54.3547 55.2987 53.776 55.2987 53.16 55.2987H52.9173V51.3787H53.384C54.3733 51.3787 54.8587 51.3787 55.4187 51.64C55.904 51.864 56.3147 52.4053 56.3147 53.152Z" fill="#021B3A"/>
</g>
<defs>
<clipPath id="clip0">
<rect width="75" height="75" fill="white"/>
</clipPath>
</defs>
</svg>
