<svg width="70" height="58" viewBox="0 0 70 58" fill="none" xmlns="http://www.w3.org/2000/svg">
<path d="M66.5 0.875H3.5C2.60526 0.876191 1.74751 1.23215 1.11483 1.86483C0.482152 2.49751 0.126191 3.35526 0.125 4.25V42.5C0.126191 43.3947 0.482152 44.2525 1.11483 44.8852C1.74751 45.5178 2.60526 45.8738 3.5 45.875H26.758L25.152 51.5H20.375C20.0766 51.5 19.7905 51.6185 19.5795 51.8295C19.3685 52.0405 19.25 52.3266 19.25 52.625V54.875H10.25C9.95163 54.875 9.66548 54.9935 9.4545 55.2045C9.24353 55.4155 9.125 55.7016 9.125 56C9.125 56.2984 9.24353 56.5845 9.4545 56.7955C9.66548 57.0065 9.95163 57.125 10.25 57.125H59.75C60.0484 57.125 60.3345 57.0065 60.5455 56.7955C60.7565 56.5845 60.875 56.2984 60.875 56C60.875 55.7016 60.7565 55.4155 60.5455 55.2045C60.3345 54.9935 60.0484 54.875 59.75 54.875H50.75V52.625C50.75 52.3266 50.6315 52.0405 50.4205 51.8295C50.2095 51.6185 49.9234 51.5 49.625 51.5H44.848L43.242 45.875H66.5C67.3947 45.8738 68.2525 45.5178 68.8852 44.8852C69.5178 44.2525 69.8738 43.3947 69.875 42.5V4.25C69.8738 3.35526 69.5178 2.49751 68.8852 1.86483C68.2525 1.23215 67.3947 0.876191 66.5 0.875ZM48.5 53.75V54.875H21.5V53.75H48.5ZM27.492 51.5L29.098 45.875H40.902L42.508 51.5H27.492ZM67.625 42.5C67.6246 42.7982 67.5059 43.0842 67.295 43.295C67.0842 43.5059 66.7982 43.6246 66.5 43.625H3.5C3.20176 43.6246 2.91585 43.5059 2.70496 43.295C2.49407 43.0842 2.37541 42.7982 2.375 42.5V40.25H67.625V42.5ZM67.625 38H2.375V4.25C2.37541 3.95176 2.49407 3.66585 2.70496 3.45496C2.91585 3.24407 3.20176 3.12541 3.5 3.125H66.5C66.7982 3.12541 67.0842 3.24407 67.295 3.45496C67.5059 3.66585 67.6246 3.95176 67.625 4.25V38Z" fill="#021B3A"/>
<path d="M52.9997 21.3191V15.5C52.9997 15.2859 52.9386 15.0762 52.8235 14.8956C52.7084 14.715 52.5441 14.571 52.35 14.4805L35.475 6.60547C35.3262 6.536 35.164 6.5 34.9997 6.5C34.8355 6.5 34.6732 6.536 34.5244 6.60547L17.6494 14.4805C17.4554 14.571 17.2912 14.715 17.1761 14.8956C17.0611 15.0762 17 15.2859 17 15.5C17 15.7141 17.0611 15.9238 17.1761 16.1044C17.2912 16.285 17.4554 16.429 17.6494 16.5195L23.7497 19.3658V32.375C23.7497 32.6734 23.8683 32.9595 24.0792 33.1705C24.2902 33.3815 24.5764 33.5 24.8747 33.5H45.1247C45.4231 33.5 45.7092 33.3815 45.9202 33.1705C46.1312 32.9595 46.2497 32.6734 46.2497 32.375V19.3658L50.7497 17.2663V21.3191C49.9991 21.5844 49.3665 22.1066 48.9636 22.7934C48.5608 23.4801 48.4137 24.2871 48.5483 25.0718C48.683 25.8564 49.0907 26.5683 49.6994 27.0814C50.3081 27.5946 51.0786 27.876 51.8747 27.876C52.6709 27.876 53.4414 27.5946 54.0501 27.0814C54.6588 26.5683 55.0665 25.8564 55.2011 25.0718C55.3358 24.2871 55.1886 23.4801 54.7858 22.7934C54.383 22.1066 53.7503 21.5844 52.9997 21.3191ZM43.9997 31.25H25.9997V20.4163L34.5244 24.3945C34.6732 24.464 34.8355 24.5 34.9997 24.5C35.164 24.5 35.3262 24.464 35.475 24.3945L43.9997 20.4163V31.25ZM34.9997 22.1333L20.7854 15.5L34.9997 8.86672L49.2141 15.5L34.9997 22.1333ZM51.8747 25.625C51.6522 25.625 51.4347 25.559 51.2497 25.4354C51.0647 25.3118 50.9205 25.1361 50.8354 24.9305C50.7502 24.725 50.7279 24.4988 50.7713 24.2805C50.8148 24.0623 50.9219 23.8618 51.0792 23.7045C51.2366 23.5472 51.437 23.44 51.6553 23.3966C51.8735 23.3532 52.0997 23.3755 52.3052 23.4606C52.5108 23.5458 52.6865 23.69 52.8101 23.875C52.9338 24.06 52.9997 24.2775 52.9997 24.5C52.9993 24.7982 52.8807 25.0842 52.6698 25.295C52.4589 25.5059 52.173 25.6246 51.8747 25.625Z" fill="#021B3A"/>
</svg>
