<svg width="56" height="56" viewBox="0 0 56 56" fill="none" xmlns="http://www.w3.org/2000/svg">
<path d="M54.25 34.125H48.125C47.8922 34.125 47.67 34.2169 47.5064 34.3814L40.7627 41.125H29.75C29.267 41.125 28.875 40.7321 28.875 40.25C28.875 39.7679 29.267 39.375 29.75 39.375H34.125C34.3578 39.375 34.58 39.2831 34.7436 39.1186L38.2436 35.6186C38.4939 35.3684 38.5691 34.9921 38.4335 34.6649C38.2987 34.3385 37.9785 34.125 37.625 34.125H25.375C25.1606 34.125 24.9541 34.2037 24.794 34.3455L17.1675 41.125H14.875V40.25C14.875 39.767 14.4839 39.375 14 39.375H11.375V38.5C11.375 38.017 10.9839 37.625 10.5 37.625H1.75C1.26613 37.625 0.875 38.017 0.875 38.5V54.25C0.875 54.733 1.26613 55.125 1.75 55.125H10.5C10.9839 55.125 11.375 54.733 11.375 54.25V53.375H14C14.4839 53.375 14.875 52.983 14.875 52.5V51.625H38.5C38.7328 51.625 38.955 51.5331 39.1186 51.3686L54.8686 35.6186C55.1189 35.3684 55.1941 34.9921 55.0585 34.6649C54.9237 34.3385 54.6035 34.125 54.25 34.125ZM9.625 53.375H2.625V39.375H9.625V40.25V52.5V53.375ZM13.125 51.625H11.375V41.125H13.125V51.625ZM38.1377 49.875H14.875V42.875H17.5C17.7144 42.875 17.9209 42.7963 18.081 42.6545L25.7075 35.875H35.5127L33.7627 37.625H29.75C28.3027 37.625 27.125 38.8027 27.125 40.25C27.125 41.6973 28.3027 42.875 29.75 42.875H41.125C41.3578 42.875 41.58 42.7831 41.7436 42.6186L48.4873 35.875H52.1377L38.1377 49.875Z" fill="#021B3A"/>
<path d="M31.5 28C35.8426 28 39.375 24.4667 39.375 20.125C39.375 15.7833 35.8426 12.25 31.5 12.25C27.1574 12.25 23.625 15.7833 23.625 20.125C23.625 24.4667 27.1574 28 31.5 28ZM31.5 14C34.8766 14 37.625 16.7475 37.625 20.125C37.625 23.5025 34.8766 26.25 31.5 26.25C28.1234 26.25 25.375 23.5025 25.375 20.125C25.375 16.7475 28.1234 14 31.5 14Z" fill="#021B3A"/>
<path d="M54.25 9.625H51.625V7C51.625 6.517 51.2339 6.125 50.75 6.125H48.125V1.75C48.125 1.267 47.7339 0.875 47.25 0.875H1.75C1.26613 0.875 0.875 1.267 0.875 1.75V21C0.875 21.483 1.26613 21.875 1.75 21.875H4.375V26.25C4.375 26.733 4.76613 27.125 5.25 27.125H7.875V29.75C7.875 30.233 8.26613 30.625 8.75 30.625H54.25C54.7339 30.625 55.125 30.233 55.125 29.75V10.5C55.125 10.017 54.7339 9.625 54.25 9.625ZM4.375 7V20.125H2.625V2.625H46.375V6.125H5.25C4.76613 6.125 4.375 6.517 4.375 7ZM7.875 10.5V25.375H6.125V7.875H49.875V9.625H8.75C8.26613 9.625 7.875 10.017 7.875 10.5ZM53.375 28.875H9.625V11.375H53.375V28.875Z" fill="#021B3A"/>
<path d="M51.625 26.25V14C51.625 13.517 51.2339 13.125 50.75 13.125H40.25V14.875H49.875V25.375H40.25V27.125H50.75C51.2339 27.125 51.625 26.733 51.625 26.25Z" fill="#021B3A"/>
<path d="M12.25 27.125H22.75V25.375H13.125V14.875H22.75V13.125H12.25C11.7661 13.125 11.375 13.517 11.375 14V26.25C11.375 26.733 11.7661 27.125 12.25 27.125Z" fill="#021B3A"/>
<path d="M15.75 17.5C15.2661 17.5 14.875 17.892 14.875 18.375V21.875C14.875 22.358 15.2661 22.75 15.75 22.75H21C21.4839 22.75 21.875 22.358 21.875 21.875V18.375C21.875 17.892 21.4839 17.5 21 17.5H15.75ZM20.125 21H16.625V19.25H20.125V21Z" fill="#021B3A"/>
<path d="M47.25 22.75C47.7339 22.75 48.125 22.358 48.125 21.875V18.375C48.125 17.892 47.7339 17.5 47.25 17.5H42C41.5161 17.5 41.125 17.892 41.125 18.375V21.875C41.125 22.358 41.5161 22.75 42 22.75H47.25ZM42.875 19.25H46.375V21H42.875V19.25Z" fill="#021B3A"/>
<path d="M28 21.5188H28.9222V22.1567H28V23.8621H28.9222V24.5H31.1635V23.8621H35.4286V22.1567H31.1635V21.5188H32.3547C32.9823 21.5188 33.4818 21.4146 33.9301 21.2193C34.3783 21.0241 34.7369 20.7507 35.0443 20.4382C35.5438 19.9175 35.8 19.1233 35.8 18.2771C35.8 17.2226 35.4286 16.4675 34.7498 15.9989C34.1478 15.5823 33.4177 15.4 32.4059 15.4H28.9222V19.8133H28V21.5188ZM33.4946 18.3292C33.4946 18.889 33.4177 19.1624 33.1103 19.4618C32.9567 19.618 32.6749 19.7482 32.4187 19.7873C32.1498 19.8263 31.7527 19.8263 31.3301 19.8263H31.1635V17.0924H31.4837C32.1626 17.0924 32.4571 17.0794 32.8798 17.2747C33.2256 17.4179 33.4946 17.8085 33.4946 18.3292Z" fill="#021B3A"/>
</svg>
