<svg width="56" height="56" viewBox="0 0 56 56" fill="none" xmlns="http://www.w3.org/2000/svg">
<path d="M37.9247 51.1734C37.9183 51.1759 37.9021 51.1832 37.8961 51.1858C37.4804 51.3665 37.286 51.8518 37.4671 52.2671C37.6013 52.5765 37.9012 52.7619 38.2169 52.7619C38.3255 52.7619 38.4357 52.7397 38.5421 52.6935C38.9621 52.523 39.1642 52.0445 38.9933 51.625C38.8228 51.205 38.3447 51.0029 37.9247 51.1734Z" fill="#021B3A"/>
<path d="M25.4366 53.0824L25.426 53.0811C24.9765 53.0345 24.5723 53.3626 24.5258 53.813C24.4796 54.2637 24.8073 54.6666 25.2581 54.7132L25.2687 54.714C25.2974 54.717 25.3256 54.7187 25.3538 54.7187C25.769 54.7187 26.1254 54.4043 26.1689 53.9822C26.2151 53.5314 25.8874 53.1285 25.4366 53.0824Z" fill="#021B3A"/>
<path d="M22.2909 52.559L22.0961 53.3559L22.2892 52.5586C21.8487 52.4522 21.4056 52.7227 21.2988 53.1627C21.192 53.6032 21.4625 54.0467 21.9029 54.1531L21.9299 54.1595C21.9897 54.1727 22.0491 54.1792 22.108 54.1792C22.4853 54.1792 22.8271 53.919 22.9117 53.5362C23.0091 53.0935 22.7335 52.6569 22.2909 52.559Z" fill="#021B3A"/>
<path d="M19.2444 51.642L19.2341 51.6382C18.8094 51.4793 18.3369 51.6942 18.178 52.1184C18.0186 52.5427 18.2339 53.0156 18.6578 53.1746L18.668 53.1784C18.7633 53.2139 18.8603 53.231 18.956 53.231C19.2884 53.231 19.6011 53.0276 19.7242 52.6982C19.8831 52.2744 19.6682 51.8014 19.2444 51.642Z" fill="#021B3A"/>
<path d="M31.7887 52.9218L31.9058 53.7336L31.7866 52.9222C31.3384 52.988 31.0282 53.405 31.0945 53.8532C31.1543 54.2612 31.5046 54.5543 31.905 54.5543C31.9447 54.5543 31.9848 54.5513 32.0254 54.5454C32.0306 54.5445 32.0464 54.5424 32.0515 54.5411C32.4984 54.4668 32.8039 54.0438 32.7291 53.5969C32.6548 53.15 32.2365 52.8475 31.7887 52.9218Z" fill="#021B3A"/>
<path d="M28.6396 53.2015C28.6357 53.2015 28.6315 53.2015 28.6276 53.2015C28.6233 53.2015 28.6084 53.202 28.6046 53.2024C28.1517 53.2156 27.7949 53.5933 27.8082 54.0462C27.821 54.491 28.185 54.8422 28.6272 54.8422H28.6515C29.1049 54.8353 29.4663 54.4628 29.4599 54.0099C29.4531 53.5609 29.0869 53.2015 28.6396 53.2015Z" fill="#021B3A"/>
<path d="M34.9097 52.2423C34.908 52.2427 34.8961 52.2466 34.8944 52.247C34.4598 52.3717 34.2137 52.8233 34.3372 53.2583C34.4402 53.6184 34.7717 53.853 35.1302 53.853C35.2041 53.853 35.2793 53.8428 35.3537 53.8218C35.7899 53.6992 36.0441 53.2463 35.9215 52.8101C35.7988 52.3739 35.346 52.1197 34.9097 52.2423Z" fill="#021B3A"/>
<path d="M31.7836 3.07194C31.8293 3.07963 31.8746 3.08348 31.9195 3.08348C32.313 3.08348 32.6603 2.79893 32.7274 2.39775C32.8022 1.95085 32.5001 1.5283 32.0532 1.45353C32.0481 1.45268 32.0323 1.45054 32.0267 1.44969C31.5781 1.38389 31.1594 1.69322 31.0936 2.1414C31.0278 2.58958 31.335 3.00615 31.7836 3.07194Z" fill="#021B3A"/>
<path d="M37.894 4.81382C37.9005 4.81638 37.9167 4.82365 37.9231 4.82578C38.0248 4.86723 38.1299 4.88688 38.2337 4.88688C38.5584 4.88688 38.8673 4.69505 38.9968 4.37675C39.1673 3.95719 38.9703 3.48081 38.5507 3.31034L38.2217 4.06187L38.549 3.30949C38.1342 3.12876 37.6505 3.31888 37.4698 3.73417C37.2886 4.14945 37.4788 4.63309 37.894 4.81382Z" fill="#021B3A"/>
<path d="M25.3418 2.92756C25.3695 2.92756 25.3982 2.92628 25.4268 2.92329L25.4375 2.922C25.8882 2.87586 26.2159 2.47297 26.1698 2.02223C26.1232 1.57148 25.7207 1.24336 25.2696 1.29035L25.2585 1.29121C24.8077 1.33778 24.48 1.74067 24.5266 2.19141C24.5702 2.61353 24.9265 2.92756 25.3418 2.92756Z" fill="#021B3A"/>
<path d="M22.0981 3.47099C22.1583 3.47099 22.2194 3.46458 22.2805 3.45048L22.2972 3.44663C22.7381 3.34324 23.0111 2.9019 22.9077 2.46098C22.8043 2.02006 22.3634 1.74662 21.9217 1.84959L22.0985 2.65068L21.917 1.85087C21.4752 1.95127 21.1983 2.39091 21.2987 2.83268C21.3855 3.21336 21.7234 3.47099 22.0981 3.47099Z" fill="#021B3A"/>
<path d="M34.8954 3.74821C34.8971 3.74864 34.9095 3.75248 34.9112 3.75291C34.9851 3.77385 35.0599 3.78367 35.1334 3.78367C35.4918 3.78367 35.8208 3.54698 35.9229 3.1851C36.0455 2.74888 35.7913 2.296 35.3551 2.17338L35.1227 2.95994L35.3495 2.17167C34.9146 2.04692 34.4596 2.29771 34.3344 2.73308C34.2088 3.16844 34.4604 3.62303 34.8954 3.74821Z" fill="#021B3A"/>
<path d="M18.9472 4.4178C19.0429 4.4178 19.1403 4.40071 19.2351 4.36525C19.6615 4.21229 19.8828 3.74232 19.7294 3.31593C19.5765 2.88954 19.1061 2.66866 18.6801 2.82161C18.6767 2.82289 18.663 2.82759 18.6592 2.82887C18.2354 2.98824 18.02 3.4612 18.179 3.88502C18.3029 4.21443 18.6152 4.4178 18.9472 4.4178Z" fill="#021B3A"/>
<path d="M28.6058 2.7959C28.6097 2.7959 28.6246 2.79633 28.6289 2.79633H28.6409C29.0865 2.79633 29.4488 2.44 29.4578 1.9931C29.4672 1.54193 29.1074 1.16809 28.6567 1.15613L28.6298 1.97601L28.6541 1.1557C28.2004 1.14117 27.8231 1.49878 27.8099 1.95166C27.7966 2.40454 28.1529 2.78265 28.6058 2.7959Z" fill="#021B3A"/>
<path d="M3.32048 38.5692C3.4572 38.8725 3.75585 39.052 4.06859 39.052C4.18139 39.052 4.29589 39.0285 4.40569 38.9789C4.81457 38.7944 4.99871 38.3158 4.82055 37.9053C4.64666 37.4887 4.16857 37.2909 3.75072 37.4631C3.33202 37.6361 3.1325 38.1155 3.30553 38.5342C3.30895 38.5427 3.31664 38.5611 3.32048 38.5692Z" fill="#021B3A"/>
<path d="M1.84577 21.9054L1.83851 21.9361C1.74452 22.3796 2.02778 22.815 2.47083 22.909C2.52808 22.9209 2.58534 22.9269 2.64173 22.9269C3.01856 22.9269 3.35694 22.6663 3.44196 22.2848C3.54578 21.8447 3.27406 21.4029 2.83399 21.2978C2.39265 21.1927 1.95088 21.4649 1.84577 21.9054ZM2.80879 22.1357L2.64344 22.0959L2.82801 22.1399L2.80879 22.1357Z" fill="#021B3A"/>
<path d="M1.28486 25.2652C1.23744 25.7117 1.55787 26.1141 2.00477 26.1667C2.03724 26.1705 2.06929 26.1723 2.10176 26.1723C2.51191 26.1723 2.8661 25.8651 2.91523 25.4476L2.91865 25.413C2.95838 24.9619 2.62513 24.5654 2.17396 24.5252C1.72535 24.4851 1.32759 24.8166 1.28486 25.2652Z" fill="#021B3A"/>
<path d="M2.18462 35.3721C2.29314 35.7251 2.61742 35.9515 2.96819 35.9515C3.04809 35.9515 3.12926 35.9395 3.20959 35.9148C3.63897 35.7827 3.88122 35.3307 3.75603 34.9013C3.63512 34.4659 3.18609 34.21 2.74944 34.3288C2.31237 34.448 2.05474 34.8992 2.17394 35.3363C2.17736 35.3482 2.18078 35.3602 2.18462 35.3721Z" fill="#021B3A"/>
<path d="M1.97429 29.4599C1.98241 29.4599 1.99052 29.4595 1.99864 29.4595C2.45152 29.4463 2.80785 29.0686 2.79503 28.6157L2.7946 28.6042C2.78136 28.1517 2.40623 27.7997 1.95079 27.8138C1.49748 27.827 1.14159 28.2103 1.15483 28.6631C1.16765 29.1079 1.53252 29.4599 1.97429 29.4599Z" fill="#021B3A"/>
<path d="M3.07859 31.7969C3.07859 31.7965 3.07688 31.7849 3.07688 31.7845C3.01023 31.3368 2.59324 31.0334 2.14591 31.0996C1.69816 31.1659 1.38968 31.588 1.45548 32.0357C1.51529 32.4437 1.86564 32.7368 2.26597 32.7368C2.3057 32.7368 2.34586 32.7338 2.38645 32.7279C2.83463 32.6621 3.14438 32.2451 3.07859 31.7969Z" fill="#021B3A"/>
<path d="M3.8806 18.1776C3.45592 18.0187 2.98338 18.2336 2.82445 18.6578L2.8206 18.6681C2.66167 19.0923 2.87657 19.5653 3.30083 19.7242C3.39568 19.7597 3.49309 19.7768 3.58879 19.7768C3.92076 19.7768 4.23351 19.5734 4.35698 19.244L4.36083 19.2337C4.51976 18.8099 4.30486 18.337 3.8806 18.1776Z" fill="#021B3A"/>
<path d="M53.0393 35.9528C53.39 35.9528 53.7147 35.7263 53.8228 35.3734C53.8267 35.3619 53.8301 35.3495 53.8335 35.3376C53.9527 34.9009 53.6947 34.451 53.258 34.3318C52.8231 34.2126 52.374 34.4681 52.2518 34.9013C52.1258 35.3316 52.3681 35.784 52.7979 35.9165C52.8782 35.9412 52.9594 35.9528 53.0393 35.9528Z" fill="#021B3A"/>
<path d="M54.8456 28.6516C54.8575 28.1995 54.5016 27.8231 54.0496 27.8099C53.5959 27.7949 53.2191 28.153 53.2054 28.6059L53.205 28.6409C53.205 29.0942 53.5724 29.4612 54.0253 29.4612C54.4751 29.4612 54.84 29.0998 54.8456 28.6516ZM54.1445 28.6336L54.0257 28.6298L54.1534 28.6336H54.1445Z" fill="#021B3A"/>
<path d="M53.1711 18.6591C53.0117 18.2348 52.5396 18.0199 52.115 18.1793C51.6907 18.3382 51.4758 18.8112 51.6347 19.2354L51.6386 19.2457C51.7621 19.5751 52.0744 19.778 52.4068 19.778C52.5025 19.778 52.5999 19.7614 52.6947 19.7259C53.119 19.5665 53.3339 19.094 53.1749 18.6698L53.1711 18.6591Z" fill="#021B3A"/>
<path d="M51.1835 37.904C51.0045 38.3146 51.1886 38.794 51.5979 38.9794C51.7077 39.0285 51.8222 39.052 51.9354 39.052C52.2478 39.052 52.5464 38.8726 52.6831 38.5692C52.687 38.5611 52.6947 38.5427 52.6981 38.5346C52.8711 38.1159 52.6716 37.6374 52.2529 37.4644C51.8363 37.2922 51.3587 37.4896 51.1835 37.904Z" fill="#021B3A"/>
<path d="M53.7986 24.5291C53.35 24.5816 53.0292 24.9871 53.0783 25.4352C53.1206 25.8574 53.4765 26.174 53.8935 26.174C53.9178 26.174 53.9422 26.1731 53.9665 26.171C54.4181 26.1308 54.7518 25.733 54.7116 25.2814L54.7082 25.2468C54.6552 24.7974 54.2472 24.4765 53.7986 24.5291Z" fill="#021B3A"/>
<path d="M53.861 31.0959C53.4132 31.0293 52.9954 31.3381 52.9288 31.7863C52.9283 31.7868 52.9266 31.7983 52.9266 31.7987C52.8608 32.2469 53.1706 32.6639 53.6187 32.7297C53.6593 32.7357 53.6995 32.7386 53.7392 32.7386C54.1396 32.7386 54.4899 32.4451 54.5497 32.0375L53.7401 31.9072L54.5514 32.0286C54.6181 31.5804 54.3092 31.163 53.861 31.0959Z" fill="#021B3A"/>
<path d="M54.1475 21.9049C54.0407 21.4648 53.5985 21.1952 53.1576 21.3016C52.7196 21.4076 52.4496 21.8485 52.5517 22.2868C52.6363 22.6679 52.9751 22.929 53.3515 22.929C53.4075 22.929 53.4639 22.9234 53.5203 22.9115C53.9638 22.8192 54.2483 22.3842 54.1556 21.9408C54.1539 21.9322 54.1492 21.9134 54.1475 21.9049Z" fill="#021B3A"/>
<path d="M7.93738 10.4039C8.23773 10.5867 8.5744 10.6786 8.91107 10.6786C9.24774 10.6786 9.58441 10.5867 9.88477 10.4039L10.7948 9.84888C11.3489 9.51135 11.6929 8.89825 11.6929 8.24884V5.81183C11.6929 4.69073 10.7811 3.77814 9.66089 3.77814H8.16125C7.04059 3.77814 6.12885 4.69073 6.12885 5.81183V8.24884C6.12885 8.89825 6.47321 9.51135 7.02734 9.84888L7.93738 10.4039ZM7.76947 5.81183C7.76947 5.59521 7.94507 5.41876 8.16125 5.41876H9.66089C9.87708 5.41876 10.0522 5.59521 10.0522 5.81183V8.24884C10.0522 8.33002 10.0095 8.40607 9.94073 8.44794L9.0307 9.00293C8.95679 9.04779 8.86493 9.04779 8.79144 9.00293L7.88098 8.44794C7.81262 8.40607 7.76947 8.32959 7.76947 8.24884V5.81183Z" fill="#021B3A"/>
<path d="M45.2253 9.84888L46.0007 10.3218C46.002 10.3227 46.0033 10.3231 46.0046 10.324L46.1353 10.4039C46.4357 10.5867 46.7723 10.6786 47.109 10.6786C47.4457 10.6786 47.7823 10.5867 48.0827 10.4039L48.9927 9.84888C49.5469 9.51135 49.8908 8.89825 49.8908 8.24884V5.81183C49.8908 4.69073 48.9795 3.77814 47.8588 3.77814H46.3588C45.2385 3.77814 44.3268 4.69073 44.3268 5.81183V8.24884C44.3272 8.89825 44.6711 9.51135 45.2253 9.84888ZM45.9678 5.81183C45.9678 5.59521 46.1434 5.41876 46.3592 5.41876H47.8588C48.075 5.41876 48.2506 5.59521 48.2506 5.81183V8.24884C48.2506 8.33002 48.2079 8.40607 48.1391 8.44794L47.2291 9.00293C47.1552 9.04779 47.0629 9.04779 46.9894 9.00293L46.0793 8.44794C46.0106 8.40607 45.9678 8.32959 45.9678 8.24884V5.81183Z" fill="#021B3A"/>
<path d="M8.16125 41.9761C7.04059 41.9761 6.12885 42.8887 6.12885 44.0102V46.4468C6.12885 47.0962 6.47321 47.7093 7.02734 48.0468L7.93738 48.6018C8.23773 48.7847 8.5744 48.8765 8.91107 48.8765C9.24774 48.8765 9.58441 48.7847 9.88477 48.6018L10.7948 48.0468C11.3489 47.7093 11.6929 47.0962 11.6929 46.4468V44.0102C11.6929 42.8887 10.7811 41.9761 9.66089 41.9761H8.16125ZM10.0522 44.0102V46.4468C10.0522 46.528 10.0095 46.6044 9.94073 46.6463L9.0307 47.2009C8.95679 47.2462 8.86536 47.2462 8.79144 47.2009L7.88141 46.6463C7.81262 46.6044 7.76947 46.528 7.76947 46.4472V44.0102C7.76947 43.7932 7.94507 43.6167 8.16125 43.6167H9.66089C9.87708 43.6167 10.0522 43.7932 10.0522 44.0102Z" fill="#021B3A"/>
<path d="M47.0988 38.1979C44.9677 38.1979 43.0092 38.952 41.4749 40.206L37.8536 36.4804C38.3564 35.8938 38.8102 35.2593 39.2101 34.5779C42.0645 29.7133 41.4437 23.5981 37.7604 19.4179L41.4604 15.7829C42.9968 17.0437 44.9608 17.8021 47.0988 17.8021C48.633 17.8021 50.0779 17.4116 51.3392 16.7254C51.3734 16.7139 51.4071 16.7002 51.44 16.6835C51.5024 16.6523 51.5583 16.6135 51.6088 16.5699C52.2184 16.2101 52.7811 15.7799 53.2866 15.2903C53.3348 15.2527 53.3784 15.2104 53.4173 15.1634C55.0126 13.554 56 11.3408 56 8.90082C56 3.99304 52.007 0 47.0988 0C42.191 0 38.1979 3.99304 38.1979 8.90082C38.1979 11.0815 38.9875 13.0801 40.2936 14.6293L36.6026 18.2558C35.9792 17.7068 35.3008 17.2159 34.5775 16.7912C32.2498 15.4253 29.6026 14.8224 26.9216 15.0476C24.3009 15.2681 21.8412 16.2567 19.8084 17.9067C19.808 17.9072 19.8076 17.9076 19.8071 17.9076C19.8029 17.911 19.799 17.9149 19.7947 17.9183C19.6606 18.0272 19.529 18.1396 19.3995 18.2537L15.7192 14.6144C17.0181 13.0673 17.8021 11.0742 17.8021 8.90124C17.8021 7.36658 17.4116 5.9212 16.725 4.65955C16.7134 4.62622 16.7002 4.59247 16.6835 4.56C16.6523 4.49719 16.6139 4.44122 16.5699 4.39081C15.0203 1.76581 12.1637 0 8.90124 0C7.2854 0 5.70288 0.4375 4.32416 1.26508C3.93579 1.49835 3.81018 2.0025 4.04346 2.39087C4.27673 2.77924 4.78046 2.90485 5.16925 2.67157C6.29205 1.99738 7.58276 1.64062 8.90124 1.64062C12.9045 1.64062 16.1614 4.89752 16.1614 8.90082C16.1614 10.5073 15.6364 11.9928 14.7494 13.1963C14.6443 13.0677 14.5285 12.9451 14.4025 12.8289C13.7364 12.218 12.8456 11.8813 11.8945 11.8813H5.92718C4.97528 11.8813 4.08447 12.218 3.42053 12.8281C3.28979 12.9481 3.17017 13.0759 3.06165 13.2096C2.16956 12.0039 1.64062 10.5132 1.64062 8.90082C1.64062 7.33453 2.1311 5.84344 3.05951 4.58862C3.3291 4.22418 3.2522 3.71063 2.88776 3.44104C2.52374 3.17187 2.01019 3.24835 1.7406 3.61279C0.60199 5.15259 0 6.98077 0 8.90082C0 11.3562 0.999329 13.5822 2.61218 15.1942C2.64807 15.236 2.68823 15.2745 2.73267 15.3087C3.2334 15.791 3.78967 16.2153 4.39209 16.5707C4.43781 16.61 4.48779 16.6455 4.54291 16.675C4.58093 16.6951 4.62024 16.7113 4.65997 16.725C5.92163 17.4116 7.36658 17.8021 8.90124 17.8021C11.0464 17.8021 13.0169 17.039 14.5554 15.7705L18.2417 19.4158C17.6991 20.0336 17.2129 20.7031 16.7908 21.4221C15.5257 23.5789 14.9105 26.033 15.0117 28.5195C15.0117 28.5217 15.0121 28.5238 15.0121 28.5259V28.5276C15.0869 30.3182 15.5193 32.0426 16.2973 33.6529C16.2986 33.6563 16.3003 33.6593 16.3016 33.6627C16.302 33.6636 16.3024 33.6644 16.3033 33.6657C16.8373 34.7718 17.5214 35.7853 18.331 36.6859L14.5687 40.2406C13.028 38.9653 11.0524 38.1979 8.90124 38.1979C3.99304 38.1979 0 42.191 0 47.0992C0 49.5541 0.999329 51.7805 2.61218 53.3921C2.64807 53.4344 2.68823 53.4728 2.73267 53.507C4.33356 55.0489 6.50781 56 8.90124 56C11.2609 56 13.4933 55.0583 15.1369 53.4476C15.1514 53.4344 15.1655 53.4207 15.1788 53.4062C15.7205 52.8683 16.1627 52.2355 16.5908 51.5814C17.3086 50.4855 15.7205 49.7131 15.2159 50.6838C15.0745 50.932 14.919 51.17 14.7515 51.3973C14.646 51.2678 14.5294 51.1439 14.4025 51.0269C13.7364 50.4159 12.8456 50.0792 11.8945 50.0792H5.92718C4.97528 50.0792 4.08447 50.4163 3.42053 51.0264C3.28979 51.1465 3.17017 51.2742 3.06165 51.408C2.16956 50.2018 1.64062 48.7112 1.64062 47.0992C1.64062 43.0959 4.89752 39.8386 8.90124 39.8386C12.9045 39.8386 16.1614 43.0959 16.1614 47.0992C16.1614 47.3803 16.1452 47.664 16.1132 47.9421C16.061 48.392 16.384 48.7992 16.8339 48.8509C17.283 48.903 17.691 48.58 17.7431 48.1301C17.782 47.79 17.8021 47.4431 17.8021 47.0992C17.8021 44.9322 17.0232 42.9446 15.7312 41.3993L19.5025 37.8361C20.0955 38.3475 20.7372 38.8076 21.4225 39.2097C23.4255 40.385 25.6818 40.9981 27.9842 40.9981C28.1914 40.9981 28.399 40.9934 28.6067 40.9832C30.9595 40.8729 33.2385 40.1265 35.1965 38.8256C35.7323 38.4701 36.236 38.0792 36.7073 37.6549L40.3055 41.3566C38.9922 42.9079 38.1979 44.9121 38.1979 47.0988C38.1979 49.5537 39.1973 51.7797 40.8097 53.3917C40.846 53.434 40.8866 53.4728 40.931 53.507C42.5319 55.0489 44.7057 56 47.0988 56C49.502 56 51.684 55.0413 53.287 53.4882C53.3348 53.4506 53.3784 53.4088 53.4169 53.3618C55.0126 51.7523 56 49.5392 56 47.0992C56 42.191 52.007 38.1979 47.0988 38.1979ZM4.52966 52.2355C4.89154 51.9031 5.38757 51.7203 5.92718 51.7203H11.8945C12.4341 51.7203 12.931 51.9036 13.2925 52.2351C13.4219 52.3539 13.5287 52.4838 13.6125 52.6201C12.3167 53.7236 10.6517 54.3594 8.90124 54.3594C7.11108 54.3594 5.47131 53.707 4.2041 52.629C4.2887 52.4889 4.39764 52.3564 4.52966 52.2355ZM37.795 33.7473C37.3315 34.5369 36.7867 35.2551 36.166 35.8976C36.1617 35.9015 36.1578 35.9045 36.1536 35.9083C36.1395 35.9224 36.1266 35.937 36.1138 35.9515C35.7408 36.3322 35.3405 36.6863 34.9146 37.0119C34.2527 35.9933 33.9468 34.7385 34.1596 33.761C34.3352 32.9569 34.8026 32.5566 35.3952 32.0503C36.0446 31.4944 36.8534 30.8027 37.0653 29.5001C37.3123 27.9825 36.571 26.9323 35.9173 26.0056C35.3585 25.2148 34.8761 24.5312 34.9171 23.5716C34.9607 22.5547 35.6024 21.3713 36.5368 20.5104C39.748 24.1625 40.2872 29.5001 37.795 33.7473ZM42.402 14.4311C42.4866 14.291 42.5956 14.1585 42.728 14.0376C43.0895 13.7052 43.5855 13.5223 44.1251 13.5223H50.0925C50.6321 13.5223 51.129 13.7052 51.4904 14.0372C51.619 14.1555 51.7258 14.2841 51.8091 14.4196C50.5398 15.5043 48.8953 16.1614 47.0988 16.1614C45.309 16.1614 43.6692 15.509 42.402 14.4311ZM47.0988 1.64062C51.1025 1.64062 54.3594 4.89752 54.3594 8.90082C54.3594 10.5073 53.8343 11.9928 52.9478 13.1963C52.8427 13.0677 52.7264 12.9451 52.6004 12.8289C51.9343 12.218 51.0439 11.8813 50.0925 11.8813H44.1251C43.1732 11.8813 42.2828 12.2184 41.6189 12.8285C41.4877 12.9485 41.3681 13.0763 41.26 13.21C40.3675 12.0035 39.8386 10.5132 39.8386 8.90082C39.8386 4.89752 43.0959 1.64062 47.0988 1.64062ZM4.2041 14.4311C4.2887 14.291 4.39764 14.1585 4.52966 14.0376C4.89154 13.7052 5.38757 13.5223 5.92718 13.5223H11.8945C12.4341 13.5223 12.931 13.7052 13.2925 14.0372C13.4207 14.1555 13.5275 14.2841 13.6108 14.4196C12.3419 15.5043 10.6974 16.1614 8.90082 16.1614C7.11108 16.1614 5.47131 15.509 4.2041 14.4311ZM18.2058 22.2527C18.7984 21.2422 19.5333 20.342 20.3916 19.5679C21.079 20.0067 21.9639 20.4822 23.4379 20.6996C23.4785 20.7056 23.5186 20.7086 23.5583 20.7086C23.9587 20.7086 24.309 20.4151 24.3688 20.0075C24.4351 19.5593 24.1253 19.1423 23.6771 19.0765C22.8406 18.9531 22.2702 18.7416 21.7934 18.4904C25.3605 16.1691 30.0247 16.0217 33.7473 18.2062C34.3228 18.5442 34.865 18.9313 35.3687 19.3594C34.2878 20.3869 33.3461 21.9032 33.2782 23.5015C33.2133 25.0204 33.9374 26.0466 34.5766 26.952C35.2021 27.8376 35.5785 28.4221 35.446 29.2364C35.3358 29.9132 34.9684 30.2563 34.3284 30.8036C33.6696 31.3671 32.8492 32.0687 32.5566 33.4119C32.2131 34.9897 32.7484 36.6765 33.5452 37.9113C32.2789 38.6188 30.8882 39.0772 29.4475 39.2626C29.4479 38.5927 29.3685 38.045 29.3347 37.8113C29.2036 36.9141 28.9587 35.2435 27.6411 34.1929C26.5166 33.297 25.2058 33.3107 24.2479 33.3205C23.9254 33.3243 23.4481 33.329 23.2849 33.2654C23.2776 33.0988 23.4819 32.6698 23.5947 32.434C23.8865 31.8217 24.2864 30.9835 23.7382 30.2721C23.0905 29.4321 21.7947 29.7265 21.3687 29.8231C20.6843 29.9786 20.078 30.2272 20.0105 30.2554C19.837 30.3281 18.5591 30.8801 17.3334 31.8986C17.0258 31.0604 16.8198 30.1922 16.7173 29.3027C17.5175 29.2646 18.4528 29.1459 19.6166 28.998L19.6461 28.9942C22.7936 28.5926 25.5113 28.2452 25.9197 26.4854C26.0812 25.7881 25.801 25.1759 25.4502 24.6653C26.605 25.0268 28.0863 25.4203 29.1228 24.5953C29.7047 24.1317 30.0662 23.3204 30.114 22.3698C30.1683 21.2884 29.8166 20.2677 29.1728 19.6388C28.4922 18.9753 27.6907 18.9385 26.9968 18.9911C26.5448 19.0248 26.206 19.4188 26.2397 19.8704C26.2739 20.3224 26.6666 20.6608 27.1194 20.627C27.6864 20.5847 27.8637 20.6535 28.0273 20.8129C28.3298 21.1085 28.5059 21.687 28.4755 22.2873C28.4525 22.747 28.3051 23.149 28.1008 23.3118C27.6753 23.6506 26.4905 23.2747 25.7061 23.026C24.6794 22.7004 23.7096 22.3928 23.1999 23.199C22.7487 23.9147 23.3097 24.6025 23.719 25.1046C23.9467 25.3835 24.3705 25.9035 24.3218 26.1154C24.3188 26.1287 24.2325 26.4444 23.0239 26.7712C22.0553 27.0331 20.7842 27.1955 19.4333 27.3677L19.4098 27.3707C18.2814 27.5142 17.3799 27.6283 16.6464 27.6638C16.7015 25.7642 17.2343 23.9083 18.2058 22.2527ZM18.043 33.4589C19.1876 32.3848 20.5775 31.7965 20.6424 31.7696C21.2149 31.5312 21.9045 31.3556 22.2928 31.3351C22.2399 31.4633 22.1689 31.6119 22.1138 31.7273C21.8083 32.3682 21.3896 33.2457 21.8485 34.075C22.3492 34.9812 23.3674 34.9705 24.2654 34.9611C25.093 34.9521 25.9505 34.9432 26.6183 35.476C27.4292 36.1224 27.5992 37.2819 27.712 38.0531C27.7415 38.2569 27.8146 38.7628 27.8065 39.3545C25.8569 39.3237 23.951 38.791 22.2527 37.7946C20.4702 36.7487 19.0253 35.2568 18.043 33.4589ZM47.0988 39.8386C51.1025 39.8386 54.3594 43.0955 54.3594 47.0988C54.3594 48.7052 53.8339 50.1907 52.9478 51.3947C52.8427 51.2661 52.7264 51.1431 52.6004 51.0269C51.9343 50.4159 51.0439 50.0792 50.0925 50.0792H44.1251C43.1732 50.0792 42.2828 50.4163 41.6189 51.0264C41.4877 51.1465 41.3681 51.2742 41.26 51.408C40.3675 50.2018 39.8386 48.7112 39.8386 47.0988C39.8386 43.0959 43.0959 39.8386 47.0988 39.8386ZM42.402 52.629C42.4866 52.4889 42.5956 52.3564 42.728 52.2355C43.0895 51.9031 43.5855 51.7203 44.1251 51.7203H50.0925C50.6321 51.7203 51.129 51.9036 51.4908 52.2351C51.619 52.3535 51.7258 52.4821 51.8091 52.6175C50.5398 53.7023 48.8953 54.3594 47.0988 54.3594C45.309 54.3594 43.6692 53.707 42.402 52.629Z" fill="#021B3A"/>
<path d="M45.2253 48.0468L46.1353 48.6018C46.4357 48.7847 46.7723 48.8765 47.109 48.8765C47.4457 48.8765 47.7823 48.7847 48.0827 48.6018L48.9927 48.0468C49.5469 47.7093 49.8908 47.0962 49.8908 46.4468V44.0102C49.8908 42.8887 48.9795 41.9761 47.8588 41.9761H46.3588C45.2385 41.9761 44.3268 42.8887 44.3268 44.0102V46.4468C44.3272 47.0962 44.6711 47.7093 45.2253 48.0468ZM45.9678 44.0102C45.9678 43.7932 46.1434 43.6167 46.3592 43.6167H47.8588C48.075 43.6167 48.2506 43.7932 48.2506 44.0102V46.4468C48.2506 46.528 48.2079 46.6044 48.1387 46.6463L47.2286 47.2009C47.1547 47.2462 47.0633 47.2462 46.989 47.2009L46.0793 46.6463C46.0106 46.6044 45.9678 46.528 45.9678 46.4468V44.0102Z" fill="#021B3A"/>
<path d="M25.3417 7.87415C25.3417 9.33874 26.5341 10.5303 28 10.5303C29.4659 10.5303 30.6583 9.33874 30.6583 7.87415C30.6583 6.40912 29.4659 5.21753 28 5.21753C26.5341 5.21753 25.3417 6.40912 25.3417 7.87415ZM29.0177 7.87415C29.0177 8.43426 28.561 8.88971 28 8.88971C27.439 8.88971 26.9823 8.43426 26.9823 7.87415C26.9823 7.31403 27.439 6.85815 28 6.85815C28.561 6.85815 29.0177 7.31403 29.0177 7.87415Z" fill="#021B3A"/>
<path d="M28 45.3795C26.5341 45.3795 25.3417 46.5711 25.3417 48.0361C25.3417 49.5007 26.5341 50.6923 28 50.6923C29.4659 50.6923 30.6583 49.5007 30.6583 48.0361C30.6583 46.5711 29.4659 45.3795 28 45.3795ZM28 49.0517C27.439 49.0517 26.9823 48.5963 26.9823 48.0361C26.9823 47.476 27.439 47.0201 28 47.0201C28.561 47.0201 29.0177 47.476 29.0177 48.0361C29.0177 48.5963 28.561 49.0517 28 49.0517Z" fill="#021B3A"/>
<path d="M10.5308 28.4956C10.5308 27.0306 9.33832 25.839 7.87244 25.839C6.40656 25.839 5.21411 27.0306 5.21411 28.4956C5.21411 29.9602 6.40656 31.1518 7.87244 31.1518C9.33832 31.1518 10.5308 29.9602 10.5308 28.4956ZM6.85516 28.4956C6.85516 27.9355 7.31146 27.4796 7.87244 27.4796C8.43384 27.4796 8.89014 27.9355 8.89014 28.4956C8.89014 29.0557 8.43384 29.5112 7.87244 29.5112C7.31146 29.5112 6.85516 29.0557 6.85516 28.4956Z" fill="#021B3A"/>
<path d="M45.4692 28.4956C45.4692 29.9602 46.6617 31.1518 48.1276 31.1518C49.593 31.1518 50.7855 29.9602 50.7855 28.4956C50.7855 27.0306 49.5934 25.839 48.1276 25.839C46.6617 25.839 45.4692 27.0306 45.4692 28.4956ZM49.1448 28.4956C49.1448 29.0557 48.6885 29.5112 48.1271 29.5112C47.5662 29.5112 47.1099 29.0557 47.1099 28.4956C47.1099 27.9355 47.5662 27.4796 48.1271 27.4796C48.6885 27.4796 49.1448 27.9355 49.1448 28.4956Z" fill="#021B3A"/>
</svg>
