<svg width="56" height="56" viewBox="0 0 56 56" fill="none" xmlns="http://www.w3.org/2000/svg">
<g clip-path="url(#clip0)">
<path d="M11.2999 10.9131C12.7654 10.9131 13.9583 9.72156 13.9583 8.25653C13.9583 6.79193 12.7654 5.60034 11.2999 5.60034C9.83405 5.60034 8.6416 6.79193 8.6416 8.25653C8.6416 9.72156 9.83405 10.9131 11.2999 10.9131ZM11.2999 7.24097C11.8609 7.24097 12.3176 7.69684 12.3176 8.25696C12.3176 8.81708 11.8609 9.27252 11.2999 9.27252C10.7385 9.27252 10.2822 8.81708 10.2822 8.25696C10.2822 7.69684 10.7385 7.24097 11.2999 7.24097Z" fill="#021B3A"/>
<path d="M11.3976 50.0476H6.63812C5.93274 50.0476 5.35938 49.4751 5.35938 48.7714V2.91724C5.35938 2.21313 5.93274 1.64062 6.63812 1.64062H24.7414C25.1943 1.64062 25.5617 1.27319 25.5617 0.820312C25.5617 0.367432 25.1943 0 24.7414 0H6.63812C5.02826 0 3.71875 1.30865 3.71875 2.91724V48.7714C3.71875 50.38 5.02826 51.6882 6.63812 51.6882H11.3976C11.8505 51.6882 12.218 51.3212 12.218 50.8679C12.218 50.415 11.8505 50.0476 11.3976 50.0476Z" fill="#021B3A"/>
<path d="M49.6539 53.2964C51.2919 51.6459 52.3058 49.3764 52.3058 46.874C52.3058 41.8423 48.2085 37.7485 43.1721 37.7485C43.1273 37.7485 43.0824 37.7515 43.0375 37.7519V11.886C43.0375 11.4254 42.941 10.9811 42.7547 10.5722C42.5983 10.221 42.3813 9.90399 42.1108 9.63141L33.5411 0.95575C33.2668 0.677185 32.9481 0.454163 32.6003 0.296509C32.5986 0.295654 32.5973 0.295227 32.5961 0.294373C32.5952 0.294373 32.5948 0.293945 32.5939 0.293518C32.5927 0.293091 32.5918 0.292664 32.5909 0.292236C32.1697 0.0986939 31.7202 0 31.2549 0H28.3783C27.925 0 27.558 0.367432 27.558 0.820312C27.558 1.27319 27.925 1.64062 28.3783 1.64062H31.2549C31.3152 1.64062 31.375 1.64447 31.4344 1.65131V8.80896C31.4344 10.4175 32.7439 11.7262 34.3533 11.7262H41.3884C41.3939 11.7787 41.3965 11.8322 41.3965 11.886V37.9232C40.1579 38.168 39.009 38.6636 38.0046 39.3553C36.481 38.3035 34.7058 37.7489 32.8306 37.7489C30.961 37.7489 29.1901 38.3 27.6699 39.3459C26.1489 38.3 24.378 37.7489 22.5088 37.7489C17.4733 37.7489 13.376 41.8423 13.376 46.874C13.376 48.4091 13.7648 49.9271 14.5005 51.2635C14.9286 52.0424 15.4682 52.7542 16.1039 53.3793C16.1142 53.3891 16.1249 53.3981 16.1347 53.4079C16.1351 53.4083 16.136 53.4088 16.1364 53.4092C17.8514 55.0797 20.1124 56 22.5088 56C24.378 56 26.1489 55.4489 27.6699 54.403C29.1905 55.4489 30.961 56 32.8302 56C34.7058 56 36.4814 55.4454 38.0046 54.3931C39.4756 55.4053 41.2555 55.9996 43.1721 55.9996C45.6386 55.9996 47.8778 55.0165 49.5227 53.4237C49.571 53.3861 49.615 53.3434 49.6539 53.2964V53.2964ZM34.3538 10.0856C33.6484 10.0856 33.075 9.51263 33.075 8.80896V2.81897L40.2532 10.0856H34.3538ZM50.6652 46.874C50.6652 48.5411 50.1161 50.0826 49.1899 51.3285C49.0771 51.1879 48.9528 51.0538 48.8156 50.9277C48.135 50.3035 47.2245 49.96 46.2521 49.96H40.1126C39.1393 49.96 38.2293 50.304 37.5504 50.9273C37.4086 51.0572 37.2804 51.1965 37.1646 51.3422C36.2319 50.0942 35.6791 48.5475 35.6791 46.874C35.6791 43.0429 38.5762 39.877 42.2963 39.4421C42.3022 39.4412 42.3082 39.4404 42.3146 39.4395C42.5962 39.4075 42.882 39.3891 43.1721 39.3891C47.304 39.3891 50.6652 42.7468 50.6652 46.874V46.874ZM33.9128 46.428L32.9767 46.9979C32.893 47.0492 32.7888 47.0492 32.705 46.9979L31.7689 46.428C31.6912 46.3806 31.6429 46.2947 31.6429 46.2041V43.6992C31.6429 43.4637 31.8343 43.2723 32.0693 43.2723H33.6125C33.8475 43.2723 34.0385 43.4637 34.0385 43.6992V46.2041C34.0389 46.2951 33.9906 46.3806 33.9128 46.428V46.428ZM36.6878 40.4551C36.1149 41.0327 35.6201 41.6864 35.2172 42.3986C34.8378 41.9312 34.2598 41.6317 33.6125 41.6317H32.0693C30.9298 41.6317 30.0027 42.5593 30.0027 43.6992V46.2041C30.0027 46.8633 30.3526 47.4863 30.9157 47.8293L31.8518 48.3993C32.1569 48.5851 32.4991 48.6779 32.8409 48.6779C33.1831 48.6779 33.5253 48.5851 33.8304 48.3993L34.138 48.2122C34.2273 48.8159 34.3755 49.4008 34.5776 49.9604H29.7715C28.8004 49.9604 27.8921 50.3022 27.2128 50.923C27.1739 50.9576 27.1363 50.9935 27.103 51.0269C27.0013 51.1281 26.9073 51.2345 26.8201 51.3447C26.5963 51.0444 26.3942 50.7269 26.2164 50.3941C26.216 50.3937 26.2156 50.3928 26.2151 50.3924C26.2147 50.3911 26.2143 50.3898 26.2134 50.389C25.6405 49.3153 25.3376 48.0998 25.3376 46.874C25.3376 44.5746 26.3732 42.4358 28.1801 41.0058C29.5143 39.9484 31.1225 39.3895 32.8306 39.3895C34.2128 39.3895 35.5287 39.7557 36.6878 40.4551V40.4551ZM23.5919 46.428L22.6558 46.9979C22.572 47.0492 22.4678 47.0492 22.384 46.9979L21.4475 46.428C21.3702 46.3806 21.3219 46.2947 21.3219 46.2041V43.6992C21.3219 43.4637 21.5133 43.2723 21.7483 43.2723H23.2911C23.5261 43.2723 23.7175 43.4637 23.7175 43.6992V46.2041C23.7175 46.2951 23.6696 46.3806 23.5919 46.428ZM22.5088 39.3895C23.8832 39.3895 25.1932 39.7518 26.3489 40.4444C25.7691 41.0259 25.2765 41.6757 24.8783 42.3768C24.4989 41.9218 23.9285 41.6317 23.2915 41.6317H21.7483C20.6084 41.6317 19.6813 42.5593 19.6813 43.6992V46.2037C19.6813 46.8633 20.0312 47.4863 20.5943 47.8289L21.5308 48.3993C21.8359 48.5851 22.1777 48.6779 22.5199 48.6779C22.8617 48.6779 23.2039 48.5851 23.509 48.3993L23.7978 48.2233C23.8862 48.8159 24.0332 49.3982 24.2349 49.9604H19.4497C18.4769 49.9604 17.5668 50.304 16.8879 50.9269C16.7452 51.0576 16.6166 51.1978 16.5 51.3443C16.2932 51.067 16.1048 50.7765 15.9377 50.4727C15.3353 49.3777 15.017 48.1335 15.017 46.874C15.017 42.7468 18.3777 39.3895 22.5088 39.3895ZM17.6463 52.5658C17.7356 52.4128 17.8527 52.268 17.9962 52.1364C18.3726 51.7912 18.8887 51.6011 19.4497 51.6011H25.0184C25.3944 52.221 25.8413 52.7918 26.351 53.3028C25.1949 53.9962 23.8841 54.3594 22.5088 54.3594C20.7084 54.3594 19.0015 53.7249 17.6463 52.5658V52.5658ZM28.1788 52.7422C28.1066 52.685 28.0365 52.6248 27.9664 52.5649C28.0433 52.4329 28.142 52.3069 28.2604 52.1898C28.2749 52.1753 28.2899 52.1603 28.3061 52.1462C28.3095 52.1432 28.3134 52.1398 28.3168 52.1364C28.6932 51.7912 29.2097 51.6011 29.7715 51.6011H35.3621C35.7368 52.2167 36.1828 52.7841 36.6878 53.2934C35.5287 53.9932 34.2128 54.3594 32.8306 54.3594C31.1225 54.3594 29.5143 53.8005 28.1788 52.7422V52.7422ZM38.3105 52.5624C38.3998 52.4111 38.516 52.2676 38.6591 52.1368C39.0351 51.7912 39.5516 51.6006 40.1126 51.6006H46.2521C46.8131 51.6006 47.3296 51.7912 47.7065 52.1364C47.8453 52.2642 47.9594 52.4039 48.0474 52.5508C46.7362 53.6766 45.0328 54.3589 43.1721 54.3589C41.3179 54.3589 39.6204 53.6813 38.3105 52.5624V52.5624Z" fill="#021B3A"/>
<path d="M40.3447 43.6992V46.2041C40.3447 46.8633 40.6946 47.4863 41.2578 47.8293L42.1938 48.3993C42.4993 48.5851 42.8411 48.6779 43.1833 48.6779C43.5251 48.6779 43.8674 48.5851 44.1724 48.3993L45.1085 47.8293C45.6716 47.4863 46.0215 46.8633 46.0215 46.2041V43.6992C46.0215 42.5593 45.0944 41.6317 43.9545 41.6317H42.4117C41.2719 41.6317 40.3447 42.5593 40.3447 43.6992V43.6992ZM44.3809 43.6992V46.2041C44.3809 46.2951 44.3326 46.3806 44.2553 46.428L43.3192 46.9979C43.2355 47.0492 43.1312 47.0492 43.0471 46.9979L42.111 46.428C42.0336 46.3806 41.9854 46.2951 41.9854 46.2041V43.6992C41.9854 43.4637 42.1768 43.2723 42.4117 43.2723H43.9545C44.1899 43.2723 44.3809 43.4637 44.3809 43.6992V43.6992Z" fill="#021B3A"/>
<path d="M37.8362 37.2742C38.2895 37.2742 38.6565 36.9067 38.6565 36.4539V16.6125C38.6565 16.1597 38.2895 15.7922 37.8362 15.7922H9.46191C9.00903 15.7922 8.6416 16.1597 8.6416 16.6125V36.4539C8.6416 36.9067 9.00903 37.2742 9.46191 37.2742C9.9148 37.2742 10.2822 36.9067 10.2822 36.4539V31.2799H18.0995V36.4539C18.0995 36.9067 18.467 37.2742 18.9199 37.2742C19.3732 37.2742 19.7402 36.9067 19.7402 36.4539V31.2799H27.5579V36.4539C27.5579 36.9067 27.9249 37.2742 28.3782 37.2742C28.8311 37.2742 29.1986 36.9067 29.1986 36.4539V31.2799H37.0159V36.4539C37.0159 36.9067 37.3833 37.2742 37.8362 37.2742ZM37.0159 20.4082H29.1986V17.4329H37.0159V20.4082ZM27.5579 20.4082H19.7402V17.4329H27.5579V20.4082ZM18.1 20.4082H10.2822V17.4329H18.0995V20.4082H18.1ZM10.2822 22.0488H18.0995V25.0237H10.2822V22.0488ZM19.7406 22.0488H27.5579V25.0237H19.7406V22.0488ZM29.1986 22.0488H37.0159V25.0237H29.1986V22.0488ZM10.2822 29.6393V26.6644H18.0995V29.6393H10.2822ZM19.7406 29.6393V26.6644H27.5579V29.6393H19.7406ZM29.1986 29.6393V26.6644H37.0159V29.6393H29.1986Z" fill="#021B3A"/>
</g>
<defs>
<clipPath id="clip0">
<rect width="56" height="56" fill="white"/>
</clipPath>
</defs>
</svg>
