<svg width="56" height="56" viewBox="0 0 56 56" fill="none" xmlns="http://www.w3.org/2000/svg">
<g clip-path="url(#clip0)">
<path d="M27.9987 35.2526C28.3614 35.2526 28.7071 35.1786 29.022 35.0458L33.8614 40.6551C34.0237 40.8431 34.2527 40.9396 34.483 40.9396C34.6727 40.9396 34.8637 40.8738 35.0184 40.7405C35.3614 40.4445 35.3995 39.9262 35.1038 39.5836L30.2618 33.9717C30.5032 33.5722 30.6421 33.1039 30.6421 32.6041C30.6421 31.4308 29.876 30.4337 28.8186 30.0867V23.6733C28.8186 23.2205 28.4516 22.853 27.9983 22.853C27.5454 22.853 27.178 23.2205 27.178 23.6733V30.0867C26.121 30.4337 25.3545 31.4308 25.3545 32.6041C25.3549 34.0644 26.541 35.2526 27.9987 35.2526V35.2526ZM27.9987 31.5962C28.552 31.5962 29.0019 32.0482 29.0019 32.6041C29.0019 33.1599 28.552 33.6119 27.9987 33.6119C27.4454 33.6119 26.9955 33.1599 26.9955 32.6041C26.9955 32.0482 27.4454 31.5962 27.9987 31.5962Z" fill="#021B3A"/>
<path d="M25.9408 11.0375L26.9662 11.6643C27.2883 11.8608 27.6494 11.9591 28.0104 11.9591C28.371 11.9591 28.732 11.8608 29.0541 11.6643L30.0795 11.0375C30.6725 10.6752 31.0408 10.0177 31.0408 9.32129V6.56854C31.0408 5.36029 30.0603 4.3772 28.8555 4.3772H27.1653C25.96 4.3772 24.9795 5.36029 24.9795 6.56854V9.32129C24.9795 10.0177 25.3478 10.6752 25.9408 11.0375V11.0375ZM26.6201 6.56854C26.6201 6.26477 26.8645 6.01782 27.1653 6.01782H28.855C29.1558 6.01782 29.4002 6.26477 29.4002 6.56854V9.32129C29.4002 9.44989 29.3327 9.57123 29.2238 9.63788L28.1988 10.2642C28.0826 10.3351 27.9377 10.3351 27.822 10.2642L26.7966 9.63745C26.6876 9.57123 26.6201 9.44989 26.6201 9.32129V6.56854Z" fill="#021B3A"/>
<path d="M53.1131 53.0298C54.8964 51.2302 56 48.7531 56 46.0225C56 40.5367 51.5472 36.0741 46.0746 36.0741C45.8935 36.0741 45.7132 36.0792 45.5346 36.0891C45.7593 34.9449 45.873 33.7776 45.873 32.6044C45.873 28.9374 44.7754 25.4117 42.699 22.4086C40.8964 19.8024 38.4714 17.7448 35.6383 16.4028C37.0653 14.6793 37.9245 12.4675 37.9245 10.0578C37.9245 4.57239 33.4722 0.109375 27.9991 0.109375C22.5261 0.109375 18.0734 4.57239 18.0734 10.0578C18.0734 12.467 18.9326 14.6793 20.36 16.4024C17.5265 17.7448 15.101 19.8024 13.2989 22.4086C11.2225 25.4117 10.1245 28.9374 10.1245 32.6044C10.1245 33.7772 10.2385 34.9449 10.4628 36.0886C10.2847 36.0792 10.1057 36.0741 9.92535 36.0741C4.45276 36.0741 0 40.5367 0 46.0225C0 47.4166 0.28241 48.7654 0.839111 50.0314C1.02155 50.4458 1.50519 50.6342 1.92004 50.4518C2.3349 50.2698 2.52332 49.7857 2.34088 49.3708C1.87604 48.3143 1.64062 47.1876 1.64062 46.0225C1.64062 41.4416 5.35724 37.7147 9.92535 37.7147C14.4939 37.7147 18.2105 41.4416 18.2105 46.0225C18.2105 47.9101 17.5782 49.6524 16.5165 51.0486C16.3802 50.8692 16.2272 50.6974 16.0551 50.5385C15.3236 49.866 14.3448 49.4956 13.2989 49.4956H6.57446C5.52771 49.4956 4.54889 49.8665 3.82001 50.5381C3.28595 51.0281 2.92023 51.6314 2.75702 52.2851C2.66772 52.5739 2.74805 52.8999 2.96381 53.1131C4.83173 54.9558 7.3042 55.9709 9.92535 55.9709C12.6127 55.9709 15.0532 54.8947 16.842 53.1503C16.8869 53.1144 16.9279 53.0742 16.9638 53.0298C18.2118 51.7707 19.1261 50.1801 19.5632 48.4027C22.1476 49.7913 25.04 50.521 27.9987 50.521C30.9578 50.521 33.8507 49.7908 36.4364 48.4019C36.8765 50.1924 37.801 51.7946 39.0635 53.058C39.0969 53.0973 39.134 53.134 39.1746 53.1665C40.9618 54.9016 43.3958 55.9709 46.0746 55.9709C48.7616 55.9709 51.202 54.8947 52.9909 53.1503C53.0358 53.1144 53.0768 53.0738 53.1131 53.0298V53.0298ZM41.3497 23.3417C43.2356 26.0693 44.2324 29.2723 44.2324 32.6044C44.2324 33.8652 44.088 35.1183 43.8034 36.3373C42.9681 36.5338 42.1735 36.8372 41.4335 37.2311C41.9325 35.7797 42.2038 34.2233 42.2038 32.604C42.2038 26.2504 38.0305 20.856 32.287 19.0291C33.0543 18.6591 33.7665 18.193 34.4091 17.647C37.2089 18.8535 39.601 20.8137 41.3497 23.3417V23.3417ZM27.9991 18.3656C25.9253 18.3656 24.0283 17.5957 22.5735 16.3285C22.6786 16.1324 22.8231 15.9474 23.0042 15.7812C23.4306 15.3881 24.0146 15.1715 24.6483 15.1715H31.3723C32.0059 15.1715 32.5903 15.3881 33.0172 15.7808C33.194 15.9435 33.3359 16.1243 33.4401 16.3148C31.9832 17.5901 30.0803 18.3656 27.9991 18.3656V18.3656ZM27.9991 1.75C32.5677 1.75 36.2839 5.47687 36.2839 10.0578C36.2839 11.9458 35.652 13.6877 34.5898 15.0844C34.4536 14.9045 34.301 14.7332 34.1284 14.5742C33.397 13.9013 32.4182 13.5309 31.3723 13.5309H24.6483C23.6015 13.5309 22.6227 13.9017 21.8934 14.5734C21.7161 14.7366 21.5588 14.913 21.4196 15.0984C20.351 13.6996 19.714 11.9522 19.714 10.0578C19.714 5.47687 23.431 1.75 27.9991 1.75V1.75ZM11.7655 32.6044C11.7655 29.2723 12.7623 26.0693 14.6481 23.3417C16.3964 20.8133 18.7894 18.8535 21.5892 17.647C22.2309 18.1921 22.9423 18.6578 23.7079 19.0274C23.5353 19.0825 23.3631 19.1402 23.1922 19.2017C22.7662 19.3551 22.5453 19.8255 22.6987 20.2515C22.8521 20.6779 23.3225 20.8983 23.7485 20.7454C25.1088 20.2549 26.5392 20.0062 27.9991 20.0062C34.9269 20.0062 40.5632 25.6574 40.5632 32.604C40.5632 39.5506 34.9269 45.2018 27.9991 45.2018C21.0709 45.2018 15.4347 39.5506 15.4347 32.604C15.4347 28.411 17.5068 24.5051 20.9778 22.1553C21.3529 21.9015 21.4507 21.3914 21.197 21.0162C20.9427 20.6411 20.433 20.5428 20.0579 20.7971C16.1358 23.452 13.7941 27.8658 13.7941 32.604C13.7941 34.2228 14.0658 35.7789 14.5644 37.2298C13.8244 36.8359 13.0297 36.533 12.194 36.3364C11.9099 35.1179 11.7655 33.8648 11.7655 32.6044V32.6044ZM4.49762 52.2971C4.60315 52.0992 4.74841 51.913 4.93085 51.7455C5.35724 51.3528 5.94086 51.1362 6.57446 51.1362H13.2989C13.9325 51.1362 14.517 51.3528 14.9438 51.7455C15.1202 51.9083 15.2621 52.089 15.3668 52.2795C13.9099 53.5549 12.0069 54.3303 9.92578 54.3303C7.91217 54.3303 6.00452 53.6108 4.49762 52.2971ZM27.9987 48.8804C25.1157 48.8804 22.3022 48.1173 19.8293 46.6711C19.8434 46.4566 19.8511 46.2404 19.8511 46.0225C19.8511 45.3757 19.7883 44.7433 19.6704 44.1307C22.0121 45.8354 24.8901 46.8424 27.9991 46.8424C31.1091 46.8424 33.9879 45.835 36.33 44.1294C36.2117 44.7425 36.1489 45.3752 36.1489 46.0225C36.1489 46.24 36.1566 46.4557 36.1702 46.6698C33.6965 48.1169 30.8826 48.8804 27.9987 48.8804V48.8804ZM40.649 52.2928C40.7542 52.0967 40.8986 51.9117 41.0797 51.7455C41.5057 51.3528 42.0897 51.1362 42.7233 51.1362H45.8644C46.3177 51.1362 46.6848 50.7688 46.6848 50.3159C46.6848 49.863 46.3177 49.4956 45.8644 49.4956H42.7233C41.6766 49.4956 40.6978 49.8665 39.9689 50.5381C39.7911 50.7009 39.6343 50.8773 39.4951 51.0632C38.4261 49.6639 37.7895 47.9169 37.7895 46.0225C37.7895 41.4416 41.5061 37.7147 46.0742 37.7147C50.6428 37.7147 54.3594 41.4416 54.3594 46.0225C54.3594 47.9101 53.7271 49.652 52.6653 51.0486C52.5291 50.8692 52.3761 50.6974 52.2039 50.5385C51.4725 49.866 50.4937 49.4956 49.4478 49.4956C48.9944 49.4956 48.6274 49.863 48.6274 50.3159C48.6274 50.7688 48.9944 51.1362 49.4478 51.1362C50.0814 51.1362 50.6658 51.3528 51.0927 51.7455C51.2691 51.9083 51.4109 52.089 51.5156 52.2795C50.0587 53.5549 48.1558 54.3303 46.0746 54.3303C44.0004 54.3303 42.1038 53.5604 40.649 52.2928Z" fill="#021B3A"/>
<path d="M49.117 42.5327C49.117 41.3249 48.1365 40.3418 46.9312 40.3418H45.241C44.0358 40.3418 43.0557 41.3249 43.0557 42.5327V45.2859C43.0557 45.9819 43.424 46.6398 44.017 47.0021L45.0424 47.6285C45.3641 47.8254 45.7251 47.9237 46.0861 47.9237C46.4471 47.9237 46.8082 47.8254 47.1303 47.6285L48.1557 47.0021C48.7487 46.6398 49.117 45.9819 49.117 45.2859V42.5327ZM47.4764 45.2859C47.4764 45.4145 47.4084 45.5354 47.2999 45.6021L46.2745 46.2288C46.1583 46.2997 46.0139 46.2997 45.8977 46.2288L44.8723 45.6021C44.7638 45.5354 44.6963 45.4145 44.6963 45.2855V42.5327C44.6963 42.2294 44.9407 41.9824 45.241 41.9824H46.9312C47.2316 41.9824 47.4764 42.2294 47.4764 42.5327V45.2859Z" fill="#021B3A"/>
<path d="M8.89294 47.6289C9.21466 47.8254 9.57568 47.9237 9.93671 47.9237C10.2977 47.9237 10.6588 47.8254 10.9809 47.6289L12.0063 47.0021C12.5993 46.6398 12.9676 45.9819 12.9676 45.2859V42.5331C12.9676 41.3249 11.9871 40.3418 10.7818 40.3418H9.09161C7.88635 40.3418 6.90625 41.3249 6.90625 42.5331V45.2859C6.90625 45.9823 7.27454 46.6398 7.86755 47.0021L8.89294 47.6289ZM8.54687 42.5327C8.54687 42.2294 8.79126 41.9824 9.09161 41.9824H10.7818C11.0822 41.9824 11.327 42.2294 11.327 42.5327V45.2859C11.327 45.4145 11.259 45.5354 11.1505 45.6021L10.1251 46.2288C10.0089 46.2997 9.8645 46.2997 9.74829 46.2288L8.7229 45.6021C8.61438 45.5354 8.54687 45.4145 8.54687 45.2855V42.5327Z" fill="#021B3A"/>
</g>
<defs>
<clipPath id="clip0">
<rect width="56" height="56" fill="white"/>
</clipPath>
</defs>
</svg>
