<svg width="151" height="36" viewBox="0 0 151 36" fill="none" xmlns="http://www.w3.org/2000/svg">
<g clip-path="url(#clip0)">
<path d="M18.0003 13.4855C19.4195 13.4855 20.7242 14.1338 21.586 15.2566L21.756 15.482L25.1441 12.0939L24.9939 11.9199C23.2307 9.8918 20.6846 8.72949 18.0003 8.72949C12.8924 8.72949 8.7334 12.8885 8.7334 17.9964C8.7334 23.1042 12.8885 27.2672 18.0003 27.2672C20.6807 27.2672 23.2307 26.1049 24.9939 24.0767L25.1441 23.9028L21.756 20.5147L21.586 20.74C20.7281 21.8668 19.4195 22.5112 18.0003 22.5112C15.5096 22.5112 13.4854 20.487 13.4854 17.9964C13.4854 15.5057 15.5096 13.4855 18.0003 13.4855Z" fill="#021B3A"/>
<path d="M24.282 18.17L29.7378 23.6257C29.1922 24.7643 28.4885 25.8239 27.6385 26.7648C25.1715 29.4729 21.6609 31.0305 18 31.0305C10.8166 31.0305 4.96947 25.1873 4.96947 18C4.96947 10.8127 10.8166 4.96947 18 4.96947C21.6609 4.96947 25.1755 6.52317 27.6385 9.23523L27.8124 9.42895L31.331 5.91039L31.1689 5.73644C27.7768 2.09137 22.9774 0 18 0C8.07292 0 0 8.07292 0 18C0 27.9231 8.07292 36 18 36C22.9734 36 27.7689 33.9126 31.161 30.2754C32.0189 29.3543 32.7582 28.3541 33.3986 27.2906L37.1425 31.0345L40.5939 27.5831L27.7294 14.7226L24.282 18.17Z" fill="#021B3A"/>
<path d="M43.4876 10.624C44.5431 10.624 45.4168 10.9956 46.1759 11.7982L47.7177 10.3749C46.7096 9.20077 45.1955 8.58008 43.369 8.58008C40.0599 8.58008 37.6562 10.8217 37.6562 13.9528C37.6562 17.0839 40.0599 19.3255 43.3255 19.3255C44.808 19.3255 46.3815 18.8669 47.524 18.0051V13.7828H45.3259V16.8269C44.7171 17.1551 44.1083 17.2737 43.4559 17.2737C41.4674 17.2737 40.0876 15.8939 40.0876 13.9488C40.0916 11.9721 41.4713 10.624 43.4876 10.624Z" fill="#021B3A"/>
<path d="M59.6689 14.4815C59.6689 16.4542 58.8229 17.2726 57.3522 17.2726C55.8974 17.2726 55.0355 16.4582 55.0355 14.4815V8.75293H52.6318V14.5724C52.6318 17.6284 54.3832 19.3205 57.3364 19.3205C60.2896 19.3205 62.041 17.6284 62.041 14.5724V8.75293H59.665V14.4815H59.6689Z" fill="#021B3A"/>
<path d="M76.4044 12.5206C76.4044 10.1881 74.6689 8.74902 71.8935 8.74902H67.3945V19.1387H69.7982V16.2487H71.8896H72.0082L74.0126 19.1426H76.5942L74.2656 15.802C75.6177 15.2248 76.4044 14.0822 76.4044 12.5206ZM71.7552 14.3313H69.7943V10.7099H71.7552C73.2259 10.7099 73.9651 11.3781 73.9651 12.5206C73.9691 13.6513 73.2259 14.3313 71.7552 14.3313Z" fill="#021B3A"/>
<path d="M88.2207 14.4815C88.2207 16.4542 87.3747 17.2726 85.904 17.2726C84.4491 17.2726 83.5873 16.4582 83.5873 14.4815V8.75293H81.1836V14.5724C81.1836 17.6284 82.935 19.3205 85.8882 19.3205C88.8414 19.3205 90.5928 17.6284 90.5928 14.5724V8.75293H88.2168V14.4815H88.2207Z" fill="#021B3A"/>
<path d="M108.217 10.6231C109.257 10.6231 110.131 11.0382 110.83 11.8407L112.372 10.4175C111.392 9.23147 109.893 8.5752 108.099 8.5752C104.865 8.5752 102.457 10.8168 102.457 13.9479C102.457 17.079 104.861 19.3206 108.083 19.3206C109.893 19.3206 111.392 18.6683 112.372 17.4665L110.83 16.0432C110.131 16.8576 109.257 17.2767 108.217 17.2767C106.272 17.2767 104.892 15.9128 104.892 13.9519C104.892 11.991 106.272 10.6231 108.217 10.6231Z" fill="#021B3A"/>
<path d="M120.022 8.75293L115.393 19.1426H117.856L118.777 16.9168H123.6L124.521 19.1426H127.043L122.398 8.75293H120.022ZM119.544 15.0903L121.192 11.1131L122.841 15.0903H119.544Z" fill="#021B3A"/>
<path d="M133.499 8.75293H131.096V19.1426H138.71V17.1817H133.499V8.75293Z" fill="#021B3A"/>
<path d="M145.439 17.1817V8.75293H143.031V19.1426H150.646V17.1817H145.439Z" fill="#021B3A"/>
</g>
<defs>
<clipPath id="clip0">
<rect width="150.646" height="36" fill="white"/>
</clipPath>
</defs>
</svg>
