<svg width="65" height="65" viewBox="0 0 65 65" fill="none" xmlns="http://www.w3.org/2000/svg">
<path d="M13.6289 4.1936V17.8226H45.0805V4.1936H13.6289ZM42.9837 15.7259H15.7257V6.29038H42.9837V15.7259Z" fill="#021B3A"/>
<path d="M39.8388 32.5H18.8711V34.5968H39.8388V32.5Z" fill="#021B3A"/>
<path d="M27.2581 24.1129H20.9678V26.2097H27.2581V24.1129Z" fill="#021B3A"/>
<path d="M37.7415 24.1129H31.4512V26.2097H37.7415V24.1129Z" fill="#021B3A"/>
<path d="M27.2581 28.3064H20.9678V30.4032H27.2581V28.3064Z" fill="#021B3A"/>
<path d="M37.7415 28.3064H31.4512V30.4032H37.7415V28.3064Z" fill="#021B3A"/>
<path d="M45.0808 40.8871H28.3066V42.9839H45.0808V40.8871Z" fill="#021B3A"/>
<path d="M45.0804 45.0807H38.79V47.1775H45.0804V45.0807Z" fill="#021B3A"/>
<path d="M34.597 45.0807H28.3066V47.1775H34.597V45.0807Z" fill="#021B3A"/>
<path d="M53.4674 26.2096C52.8887 26.2096 52.419 25.7389 52.419 25.1612C52.419 24.5836 52.8887 24.1129 53.4674 24.1129C54.0461 24.1129 54.5158 24.5836 54.5158 25.1612H56.6126C56.6126 23.7962 55.733 22.643 54.5158 22.209V19.9193H52.419V22.209C51.2019 22.643 50.3223 23.7962 50.3223 25.1612C50.3223 26.8953 51.7334 28.3064 53.4674 28.3064C54.0461 28.3064 54.5158 28.7771 54.5158 29.3548C54.5158 29.9325 54.0461 30.4032 53.4674 30.4032C52.8887 30.4032 52.419 29.9325 52.419 29.3548H50.3223C50.3223 30.7198 51.2019 31.873 52.419 32.3071V34.5967H54.5158V32.3071C55.733 31.873 56.6126 30.7198 56.6126 29.3548C56.6126 27.6208 55.2015 26.2096 53.4674 26.2096Z" fill="#021B3A"/>
<path d="M60.8067 26.2097H58.71V28.3065H60.8067V26.2097Z" fill="#021B3A"/>
<path d="M48.2257 26.2097H46.1289V28.3065H48.2257V26.2097Z" fill="#021B3A"/>
<path d="M63.1139 33.5809C64.3479 31.7011 65 29.5142 65 27.2581C65 20.8996 59.8262 15.7258 53.4677 15.7258C52.3764 15.7258 51.3238 15.8883 50.3226 16.1724V5.24194C50.3226 2.35153 47.971 0 45.0806 0H5.24194C2.35153 0 0 2.35153 0 5.24194V14.6774H8.3871V22.489L4.14113 27.9469C3.54774 28.4731 3.13887 29.3454 3.00992 30.3686L2.13766 37.353C2.11145 37.569 2.09677 37.786 2.09677 38.003V46.9164C2.09677 47.1344 2.11145 47.3504 2.13766 47.5664L3.00573 54.5161H0V65H14.6774V59.7581H53.4677C56.3581 59.7581 58.7097 57.4065 58.7097 54.5161V49.2742H50.3226V38.3437C51.3238 38.6278 52.3764 38.7903 53.4677 38.7903C56.5552 38.7903 59.4561 37.5868 61.6347 35.3998L60.1502 33.9195C58.3669 35.7091 55.9933 36.6935 53.4677 36.6935C48.2646 36.6935 44.0323 32.4602 44.0323 27.2581C44.0323 22.056 48.2646 17.8226 53.4677 17.8226C58.6709 17.8226 62.9032 22.056 62.9032 27.2581C62.9032 29.1043 62.3696 30.8928 61.361 32.4298L63.1139 33.5809ZM2.09677 12.5806V5.24194C2.09677 3.5079 3.5079 2.09677 5.24194 2.09677C6.97597 2.09677 8.3871 3.5079 8.3871 5.24194V12.5806H2.09677ZM4.19355 38.003C4.19355 37.873 4.20193 37.7419 4.21766 37.613L5.08992 30.6297C5.16331 30.0436 5.37823 29.6348 5.54806 29.5027L11.7262 21.6115L11.8237 21.4615C12.0575 21.0244 12.3427 20.9677 12.5649 20.9677C13.152 20.9677 13.629 21.4448 13.629 22.0319V22.3883C13.629 22.6116 13.5609 22.8255 13.4319 23.0069L9.36419 28.7017C8.72468 29.5949 8.3871 30.6485 8.3871 31.7473V37.8006C8.3871 38.609 8.57895 39.4204 8.9396 40.1448L9.83597 41.9355H9.43548V44.0323H11.9663L16.8644 39.1342C17.0835 38.9161 17.3864 38.7903 17.6957 38.7903C18.3436 38.7903 18.871 39.3177 18.871 39.9656C18.871 40.2801 18.7494 40.5747 18.5271 40.7969L10.4839 48.8402V54.5161H5.11927L4.21766 47.3074C4.20193 47.1774 4.19355 47.0464 4.19355 46.9164V38.003ZM12.5806 62.9032H2.09677V56.6129H12.5806V62.9032ZM56.6129 51.371V54.5161C56.6129 56.2502 55.2018 57.6613 53.4677 57.6613H17.8205C18.4799 56.7848 18.871 55.6956 18.871 54.5161V51.371H56.6129ZM48.2258 16.9985C44.4977 18.9119 41.9355 22.7877 41.9355 27.2581C41.9355 31.7284 44.4977 35.6043 48.2258 37.5176V49.2742H16.7742V54.5161C16.7742 55.8811 15.8946 57.0344 14.6774 57.4684V54.5161H12.5806V49.7082L20.0095 42.2794C20.6281 41.6619 20.9677 40.8399 20.9677 39.9656C20.9677 38.1613 19.5 36.6935 17.6957 36.6935C16.834 36.6935 15.991 37.0427 15.3819 37.6518L11.8195 41.2142L10.8152 39.2076C10.5981 38.7725 10.4839 38.286 10.4839 37.8006V31.7473C10.4839 31.0878 10.6862 30.4567 11.0699 29.9189L15.1377 24.224C15.5224 23.6862 15.7258 23.0509 15.7258 22.3873V22.0308C15.7258 20.2894 14.3073 18.871 12.5649 18.871C11.7514 18.871 11.0269 19.1907 10.4839 19.7663V5.24194C10.4839 4.05726 10.074 2.97532 9.40823 2.09677H45.0806C46.8147 2.09677 48.2258 3.5079 48.2258 5.24194V16.9985Z" fill="#021B3A"/>
</svg>
