<svg width="65" height="65" viewBox="0 0 65 65" fill="none" xmlns="http://www.w3.org/2000/svg">
<g clip-path="url(#clip0)">
<path d="M62.8991 24.46C64.2735 22.5111 65 20.2162 65 17.8228C65 11.4644 59.8263 6.29071 53.4679 6.29071C52.0317 6.29071 50.6101 6.57587 49.2744 7.10005V3.1456C49.2744 1.41159 47.8633 0.000488281 46.1293 0.000488281C44.6417 0.000488281 43.3994 1.04047 43.0744 2.42956L42.5649 2.66125C35.4926 5.87556 24.7824 7.33908 17.8233 7.33908H16.775H13.6299C12.2649 7.33908 11.1117 8.21866 10.6777 9.43582H6.29127V11.5326C2.82221 11.5326 0.00104837 14.3537 0.00104837 17.8228C0.00104837 21.2918 2.82221 24.113 6.29127 24.113V26.2097H10.6777C11.1117 27.4269 12.2649 28.3065 13.6299 28.3065H16.775H17.8233C18.162 28.3065 18.5163 28.3128 18.8717 28.3201V31.5187C17.7342 31.6686 16.6785 32.1624 15.8535 32.9864L14.1174 34.7236C13.5229 35.318 12.7335 35.6451 11.8927 35.6451H8.38696V33.5483H0V54.5157H8.38696V51.3706H9.79597C10.6368 51.3706 11.4272 51.6977 12.0196 52.2911L12.7083 52.9809C13.698 53.9706 15.0148 54.5157 16.4154 54.5157H26.2093H27.2587H32.5005C34.2345 54.5157 35.6456 53.1046 35.6456 51.3706C35.6456 50.5623 35.3301 49.8316 34.8279 49.2739C35.3311 48.7162 35.6456 47.9854 35.6456 47.1771C35.6456 46.3689 35.3301 45.6381 34.8279 45.0804C35.3311 44.5227 35.6456 43.792 35.6456 42.9837C35.6456 42.1754 35.3301 41.4447 34.8279 40.8869C35.3311 40.3292 35.6456 39.5985 35.6456 38.7902C35.6456 37.0562 34.2345 35.6451 32.5005 35.6451H32.3076C32.425 35.3159 32.5005 34.9657 32.5005 34.5967C32.5005 32.8627 31.0894 31.4516 29.3554 31.4516V29.3108C34.0479 30.074 38.817 31.2807 42.5649 32.9843L43.0744 33.216C43.4004 34.6051 44.6427 35.6451 46.1293 35.6451C47.8633 35.6451 49.2744 34.234 49.2744 32.5V28.5455C50.6101 29.0697 52.0317 29.3549 53.4679 29.3549C56.4505 29.3549 59.279 28.2205 61.4334 26.1615L59.9856 24.6456C58.2223 26.3303 55.9075 27.2581 53.4679 27.2581C52.0138 27.2581 50.5807 26.8964 49.2744 26.2443V9.40122C50.5807 8.74914 52.0138 8.38745 53.4679 8.38745C58.671 8.38745 62.9033 12.6208 62.9033 17.8228C62.9033 19.7811 62.3099 21.6588 61.185 23.2523L62.8991 24.46ZM6.29127 22.0163C3.97856 22.0163 2.09779 20.1355 2.09779 17.8228C2.09779 15.5101 3.97856 13.6293 6.29127 13.6293V22.0163ZM10.4848 24.113H8.38801V11.5326H10.4848V24.113ZM16.775 11.5326H14.6782V13.6293H16.775V22.0163H14.6782V24.113H16.775V26.2097H13.6299C13.0512 26.2097 12.5815 25.739 12.5815 25.1614V10.4842C12.5815 9.90654 13.0512 9.43582 13.6299 9.43582H16.775V11.5326ZM6.29022 52.419H2.09674V35.6451H6.29022V52.419ZM23.8819 45.0804C23.3787 45.6381 23.0641 46.3689 23.0641 47.1771C23.0641 47.9854 23.3797 48.7162 23.8819 49.2739C23.3787 49.8316 23.0641 50.5623 23.0641 51.3706C23.0641 51.7397 23.1396 52.0898 23.257 52.419H20.9685V38.1758L21.4025 37.7418H23.257C23.1396 38.071 23.0641 38.4212 23.0641 38.7902C23.0641 39.5985 23.3797 40.3292 23.8819 40.8869C23.3787 41.4447 23.0641 42.1754 23.0641 42.9837C23.0641 43.792 23.3797 44.5227 23.8819 45.0804ZM32.5005 52.419H27.2587H26.2093C25.6306 52.419 25.1609 51.9483 25.1609 51.3706C25.1609 50.793 25.6306 50.3223 26.2093 50.3223H32.5005C33.0792 50.3223 33.5489 50.793 33.5489 51.3706C33.5489 51.9483 33.0792 52.419 32.5005 52.419ZM32.5005 48.2255H26.2093C25.6306 48.2255 25.1609 47.7548 25.1609 47.1771C25.1609 46.5995 25.6306 46.1288 26.2093 46.1288H32.5005C33.0792 46.1288 33.5489 46.5995 33.5489 47.1771C33.5489 47.7548 33.0792 48.2255 32.5005 48.2255ZM32.5005 44.032H26.2093C25.6306 44.032 25.1609 43.5613 25.1609 42.9837C25.1609 42.406 25.6306 41.9353 26.2093 41.9353H32.5005C33.0792 41.9353 33.5489 42.406 33.5489 42.9837C33.5489 43.5613 33.0792 44.032 32.5005 44.032ZM32.5005 37.7418C33.0792 37.7418 33.5489 38.2125 33.5489 38.7902C33.5489 39.3678 33.0792 39.8386 32.5005 39.8386H26.2093C25.6306 39.8386 25.1609 39.3678 25.1609 38.7902C25.1609 38.2125 25.6306 37.7418 26.2093 37.7418H29.3554H32.5005ZM30.4038 34.5967C30.4038 35.1744 29.9341 35.6451 29.3554 35.6451H26.2093H20.5344L16.0338 40.1457L17.5162 41.6281L18.8717 40.2726V52.419H16.4154C15.5746 52.419 14.7852 52.0919 14.1918 51.4985L13.503 50.8087C12.5133 49.819 11.1966 49.2739 9.79597 49.2739H8.38696V37.7418H11.8927C13.2933 37.7418 14.6101 37.1967 15.5997 36.207L17.3358 34.4699C17.9303 33.8754 18.7197 33.5483 19.5605 33.5483H29.3554C29.9341 33.5483 30.4038 34.0191 30.4038 34.5967ZM20.9685 31.4516V28.3977C22.9352 28.5015 25.0676 28.7007 27.2587 28.9974V31.4516H20.9685ZM42.9842 30.8834C35.9885 27.8316 25.8958 26.3555 18.8717 26.2192V24.113H20.9685V22.0163H18.8717V13.6293H20.9685V11.5326H18.8717V9.42534C25.8958 9.2901 35.9885 7.81294 42.9842 4.76114V30.8834ZM47.1777 32.5C47.1777 33.0776 46.708 33.5483 46.1293 33.5483C45.5506 33.5483 45.081 33.0776 45.081 32.5V3.1456C45.081 2.56795 45.5506 2.09723 46.1293 2.09723C46.708 2.09723 47.1777 2.56795 47.1777 3.1456V32.5Z" fill="#021B3A"/>
<path d="M39.5242 8.28369C34.1471 9.97681 28.6883 10.7725 25.0557 11.1426L25.2685 13.2278C28.9986 12.8483 34.6084 12.0295 40.1553 10.2829L39.5242 8.28369Z" fill="#021B3A"/>
<path d="M53.4684 16.7744C52.8897 16.7744 52.42 16.3036 52.42 15.726C52.42 15.1483 52.8897 14.6776 53.4684 14.6776C54.0471 14.6776 54.5167 15.1483 54.5167 15.726H56.6135C56.6135 14.361 55.7339 13.2078 54.5167 12.7738V10.4841H52.42V12.7738C51.2028 13.2078 50.3232 14.361 50.3232 15.726C50.3232 17.46 51.7343 18.8711 53.4684 18.8711C54.0471 18.8711 54.5167 19.3418 54.5167 19.9195C54.5167 20.4971 54.0471 20.9678 53.4684 20.9678C52.8897 20.9678 52.42 20.4971 52.42 19.9195H50.3232C50.3232 21.2844 51.2028 22.4376 52.42 22.8717V25.1613H54.5167V22.8717C55.7339 22.4376 56.6135 21.2844 56.6135 19.9195C56.6135 18.1855 55.2024 16.7744 53.4684 16.7744Z" fill="#021B3A"/>
<path d="M58.7101 35.645V37.7418H61.4211L61.3153 37.8476C55.2987 43.8632 47.2996 47.1771 38.791 47.1771V49.2738C47.8594 49.2738 56.3858 45.7419 62.7977 39.33L62.9035 39.2242V41.9352H65.0003V35.645H58.7101Z" fill="#021B3A"/>
<path d="M62.9031 46.1288V62.9027H60.8064V48.2255H54.5162V62.9027H52.4194V52.419H46.1292V62.9027H44.0325V56.6125H37.7422V62.9027H35.6455V64.9994H64.9999V46.1288H62.9031ZM41.9357 62.9027H39.839V58.7092H41.9357V62.9027ZM50.3227 62.9027H48.2259V54.5157H50.3227V62.9027ZM58.7097 62.9027H56.6129V50.3223H58.7097V62.9027Z" fill="#021B3A"/>
<path d="M60.8067 16.7744H58.71V18.8712H60.8067V16.7744Z" fill="#021B3A"/>
</g>
<defs>
<clipPath id="clip0">
<rect width="65" height="65" fill="white"/>
</clipPath>
</defs>
</svg>
