<svg width="65" height="65" viewBox="0 0 65 65" fill="none" xmlns="http://www.w3.org/2000/svg">
<g clip-path="url(#clip0)">
<path d="M52.7503 56.6129L50.3233 49.3308C49.4751 46.7885 47.3113 44.9119 44.6735 44.4317L37.6671 43.1569V42.6138C38.8864 41.9061 39.9474 40.9594 40.7924 39.8387H42.9091C44.6431 39.8387 46.0542 38.4276 46.0542 36.6936V24.1129C46.0542 16.5981 39.94 10.4839 32.4252 10.4839C24.9104 10.4839 18.7962 16.5981 18.7962 24.1129V31.4516C18.7962 33.4729 20.2335 35.164 22.1395 35.5582C22.7276 38.5712 24.6105 41.1209 27.1833 42.6138V43.1569L20.1758 44.4317C17.5392 44.9119 15.3742 46.7885 14.5271 49.3308L14.1078 50.5899L10.537 47.0191C10.1281 46.6103 10.1281 45.9445 10.537 45.5357L14.6781 41.3956L6.90537 33.6228L2.22537 38.3028C0.839398 39.6888 0.0761719 41.5319 0.0761719 43.4924C0.0761719 45.4528 0.839398 47.2949 2.22537 48.6808L16.3943 62.8498C17.7803 64.2357 19.6234 65 21.5838 65C23.5443 65 25.3863 64.2357 26.7398 62.8812L31.8465 58.2023L30.254 56.6129H52.7503ZM43.9575 36.6936C43.9575 37.2723 43.4867 37.742 42.9091 37.742H42.0274C42.3314 37.049 42.5621 36.3182 42.7109 35.5582C43.1596 35.4649 43.5727 35.2866 43.9575 35.0623V36.6936ZM42.9091 33.257V29.6463C43.5329 30.0101 43.9575 30.679 43.9575 31.4516C43.9575 32.2243 43.5329 32.8932 42.9091 33.257ZM21.9413 33.257C21.3175 32.8932 20.8929 32.2243 20.8929 31.4516C20.8929 30.679 21.3175 30.0101 21.9413 29.6463V33.257ZM21.9413 26.2097V27.407C21.5681 27.5045 21.2179 27.6512 20.8929 27.841V24.1129C20.8929 17.7545 26.0667 12.5807 32.4252 12.5807C38.7837 12.5807 43.9575 17.7545 43.9575 24.1129V27.841C43.6325 27.6512 43.2823 27.5034 42.9091 27.407V26.2097H41.8607C38.7606 26.2097 35.8461 25.002 33.6529 22.8098L32.4252 21.5821L31.1975 22.8098C29.0043 25.002 26.0898 26.2097 22.9897 26.2097H21.9413ZM24.0381 33.5484V28.2666C27.1864 28.0297 30.1219 26.7307 32.4252 24.5407C34.7285 26.7307 37.664 28.0307 40.8123 28.2666V33.5484C40.8123 35.077 40.395 36.507 39.678 37.742H32.4252V39.8387H37.9544C36.4762 41.1398 34.544 41.9355 32.4252 41.9355C27.8008 41.9355 24.0381 38.1728 24.0381 33.5484ZM35.5704 43.549V43.5982L32.4252 46.7434L29.28 43.5982V43.549C30.2739 43.8614 31.3296 44.0323 32.4252 44.0323C33.5208 44.0323 34.5765 43.8614 35.5704 43.549ZM16.5149 49.9934C17.1198 48.1776 18.6662 46.8367 20.5501 46.4928L27.8784 45.1614L32.4252 49.7082L36.971 45.1624L44.2982 46.4939C46.1821 46.8378 47.7285 48.1776 48.3334 49.9944L49.8421 54.5161H28.1572L24.0738 50.4327L19.5363 54.5371C19.1411 54.9344 18.4502 54.9344 18.0539 54.5371L15.7642 52.2474L16.5149 49.9934ZM6.90432 36.5877L11.7122 41.3956L10.5737 42.5341L5.76577 37.7262L6.90432 36.5877ZM25.2878 61.3694C24.2981 62.357 22.9813 62.9032 21.5817 62.9032C20.1821 62.9032 18.8654 62.357 17.8746 61.3674L3.70569 47.1994C2.71601 46.2098 2.17085 44.893 2.17085 43.4934C2.17085 42.0928 2.71601 40.776 3.70569 39.7863L4.2823 39.2097L9.0902 44.0176L9.05246 44.0553C7.8269 45.2819 7.8269 47.277 9.05246 48.5036L16.5704 56.0216C17.1649 56.615 17.9543 56.9432 18.7951 56.9432C19.6359 56.9432 20.4254 56.6161 20.981 56.0583L21.0596 55.9881L25.8896 60.818L25.2878 61.3694ZM27.437 59.3985L22.6175 54.579L24.0025 53.3273L28.8135 58.1383L27.437 59.3985Z" fill="#021B3A"/>
<path d="M61.7796 0H47.1022C45.3682 0 43.957 1.41113 43.957 3.14516V11.5323C43.957 13.2663 45.3682 14.6774 47.1022 14.6774H49.9024L48.8184 21.0002L58.9353 14.6774H61.7796C63.5136 14.6774 64.9248 13.2663 64.9248 11.5323V3.14516C64.9248 1.41113 63.5136 0 61.7796 0ZM62.828 11.5323C62.828 12.1099 62.3573 12.5806 61.7796 12.5806H58.3336L51.6753 16.7417L52.3892 12.5806H47.1022C46.5245 12.5806 46.0538 12.1099 46.0538 11.5323V3.14516C46.0538 2.5675 46.5245 2.09677 47.1022 2.09677H61.7796C62.3573 2.09677 62.828 2.5675 62.828 3.14516V11.5323Z" fill="#021B3A"/>
<path d="M60.731 4.1936H48.1504V6.29038H60.731V4.1936Z" fill="#021B3A"/>
<path d="M56.5375 8.38708H48.1504V10.4839H56.5375V8.38708Z" fill="#021B3A"/>
<path d="M60.7315 8.38708H58.6348V10.4839H60.7315V8.38708Z" fill="#021B3A"/>
<path d="M32.4253 3.14514C18.727 3.14514 6.92745 12.6205 3.85987 25.8375L1.87318 22.5256L0.0751953 23.6044L3.76028 29.7448L9.90068 26.0597L8.82189 24.2618L5.98076 25.9664C8.95189 13.8754 19.8247 5.24192 32.4253 5.24192C35.1794 5.24192 37.8968 5.65079 40.5021 6.45804L41.1227 4.45563C38.3162 3.58546 35.3901 3.14514 32.4253 3.14514Z" fill="#021B3A"/>
<path d="M64.4155 23.2134L58.2751 19.5283L54.5911 25.6698L56.3891 26.7486L58.2238 23.6904C59.1893 26.5158 59.6831 29.4712 59.6831 32.5C59.6831 38.7348 57.5234 44.8301 53.6035 49.6621L55.2317 50.9831C59.4546 45.7789 61.7799 39.2139 61.7799 32.5C61.7799 29.293 61.263 26.1615 60.2555 23.1631L63.3367 25.0114L64.4155 23.2134Z" fill="#021B3A"/>
</g>
<defs>
<clipPath id="clip0">
<rect width="65" height="65" fill="white"/>
</clipPath>
</defs>
</svg>
