<svg width="65" height="65" viewBox="0 0 65 65" fill="none" xmlns="http://www.w3.org/2000/svg">
<g clip-path="url(#clip0)">
<path d="M59.0549 23.4333L52.8066 29.6815L54.2794 31.1543L60.5277 24.9061L59.0549 23.4333Z" fill="#021B3A"/>
<path d="M59.9437 15.5569C60.5311 13.8584 60.8341 11.7203 60.8341 9.58848C60.8341 4.93015 59.4032 0.215576 56.6684 0.215576C53.9336 0.215576 52.5026 4.93015 52.5026 9.58848C52.5026 11.8307 52.8297 13.899 53.4014 15.5476L48.3369 20.6131V35.6243C48.3369 36.773 49.2711 37.7072 50.4198 37.7072H62.917C64.0657 37.7072 64.9998 36.773 64.9998 35.6243V20.6131L59.9437 15.5569ZM56.6684 2.29844C57.2735 2.29844 58.7512 4.85308 58.7512 9.58848C58.7512 11.3193 58.5523 12.7555 58.2722 13.8854L56.6684 12.2816L55.0656 13.8844C54.7573 12.6284 54.5855 11.1392 54.5855 9.58848C54.5855 4.85308 56.0633 2.29844 56.6684 2.29844ZM50.4198 35.6243V21.4754L56.6684 15.2268L57.4765 16.035C57.1683 16.589 56.8694 16.8785 56.6684 16.8785V18.9614C57.588 18.9614 58.3565 18.4198 58.9762 17.5346L62.917 21.4754L62.918 35.6243H50.4198V35.6243Z" fill="#021B3A"/>
<path d="M29.5917 14.7957H27.5088V16.8785H29.5917V14.7957Z" fill="#021B3A"/>
<path d="M29.5917 18.9614H27.5088V21.0443H29.5917V18.9614Z" fill="#021B3A"/>
<path d="M54.5858 23.1271H52.5029V25.2099H54.5858V23.1271Z" fill="#021B3A"/>
<path d="M60.8338 29.3757H58.751V31.4586H60.8338V29.3757Z" fill="#021B3A"/>
<path d="M54.8356 46.6062C47.178 43.0684 41.1689 36.8407 37.903 29.0664V25.21C37.903 22.673 38.5924 20.1819 39.8963 18.0095L40.0202 17.8043C40.6794 16.7056 41.0273 15.4476 41.0273 14.1677C41.0273 12.2795 40.292 10.5039 38.9569 9.17086L38.9527 9.16565C39.0392 6.84742 39.8421 4.57189 41.2355 2.71501L43.1101 0.215576H32.6958V8.88342L28.5301 10.5497L24.3643 8.88342V0.215576H13.95L15.8235 2.71501C17.2159 4.57189 18.0189 6.84742 18.1064 9.16461L18.1022 9.16982C16.7671 10.5039 16.0318 12.2785 16.0318 14.1677C16.0318 15.4486 16.3797 16.7067 17.0389 17.8043L17.1607 18.0074C18.4656 20.183 19.1561 22.673 19.1561 25.21V29.156C15.8808 36.8875 9.89049 43.083 2.26408 46.6083L0 47.6549L0.570705 48.6422C1.31325 49.9284 2.50256 50.9 3.90954 51.3926C4.02097 52.8777 4.65104 54.2784 5.70185 55.3292C6.75265 56.38 8.15338 57.0101 9.63846 57.1215C10.13 58.5275 11.1017 59.7168 12.3889 60.4604C13.6751 61.2029 15.1914 61.4477 16.6546 61.1727C17.494 62.4037 18.7406 63.3014 20.1746 63.6857C21.6097 64.0721 23.1375 63.9158 24.4799 63.2702C25.6088 64.2397 27.0512 64.7844 28.5696 64.7844C30.0547 64.7844 31.4919 64.2397 32.6208 63.2681C33.9632 63.9158 35.492 64.071 36.925 63.6836C38.3601 63.2993 39.6067 62.4026 40.4461 61.1706C41.9104 61.4477 43.4246 61.2019 44.7118 60.4583C45.9991 59.7147 46.9697 58.5254 47.4623 57.1195C48.9474 57.0091 50.3481 56.378 51.3989 55.3272C52.4497 54.2774 53.0798 52.8756 53.1912 51.3905C54.5971 50.8979 55.7864 49.9263 56.53 48.6401L57.0997 47.6528L54.8356 46.6062ZM18.9478 16.9358L18.826 16.7327C18.3615 15.9589 18.1157 15.0716 18.1157 14.1677C18.1157 12.8357 18.6344 11.5839 19.5758 10.6424L20.1986 10.0196V9.58847C20.1986 7.01613 19.4477 4.46358 18.0678 2.29844H22.2815V10.2935L28.5301 12.793L34.7787 10.2935V2.29844H38.9923C37.6124 4.46358 36.8615 7.01613 36.8615 9.58847V10.0196L37.4843 10.6434C38.4258 11.5849 38.9444 12.8367 38.9444 14.1687C38.9444 15.0716 38.6986 15.9589 38.2352 16.7317L38.1112 16.9368C36.7907 19.1374 36.0211 21.6181 35.8555 24.1696H21.2046C21.039 21.6181 20.2684 19.1363 18.9478 16.9358ZM35.8201 26.2514V28.3343H21.24V26.2514H35.8201ZM9.76343 55.021C8.78032 54.9418 7.87323 54.5555 7.17339 53.8567C6.33295 53.0141 5.90909 51.88 5.98199 50.6615L6.03615 49.7607L5.15197 49.5795C4.35527 49.416 3.65231 49.0494 3.09514 48.5193L3.13888 48.4985C11.0881 44.8243 17.3586 38.4164 20.8745 30.4171H22.1981C21.315 39.1516 17.4513 47.3321 11.2287 53.5557L9.76343 55.021ZM23.3562 61.4841C22.5158 61.8371 21.6024 61.9101 20.7131 61.6726C19.5644 61.3654 18.6302 60.5937 18.0834 59.5023L17.6794 58.6951L16.8233 58.9805C15.6663 59.3648 14.4603 59.2513 13.4293 58.6556C12.4909 58.114 11.8432 57.2371 11.5464 56.1843L12.7013 55.0293C19.3144 48.4152 23.401 39.7067 24.2904 30.4171H25.4245C25.4183 40.7721 24.7236 51.2229 23.3562 61.4841ZM43.6704 58.6556C42.6394 59.2513 41.4334 59.3648 40.2764 58.9805L39.4203 58.6951L39.0162 59.5023C38.4695 60.5937 37.5353 61.3654 36.3856 61.6726C35.4962 61.9101 34.5829 61.8371 33.7424 61.4841C32.5583 52.5934 31.8751 43.5371 31.7127 34.5641L29.6298 34.6016C29.7912 43.5079 30.4671 52.4955 31.6262 61.3268C30.8202 62.211 29.7392 62.7015 28.6384 62.7047L28.5301 62.7015C27.3616 62.7015 26.2806 62.211 25.4745 61.3289C26.8159 51.1146 27.5011 40.719 27.5063 30.4171H29.5913C29.5913 31.1149 29.5944 31.8116 29.6006 32.5094L31.6835 32.4906C31.6773 31.7991 31.6741 31.1086 31.6741 30.4171H32.8083C33.6976 39.7067 37.7842 48.4152 44.3973 55.0283L45.5523 56.1832C45.2565 57.2371 44.6087 58.113 43.6704 58.6556ZM51.9477 49.5795L51.0635 49.7607L51.1177 50.6615C51.1896 51.88 50.7667 53.0141 49.9253 53.8556C49.2265 54.5544 48.3204 54.9429 47.3363 55.021L45.8699 53.5546C39.6474 47.3321 35.7836 39.1516 34.9005 30.4171H36.2242C39.7411 38.4164 46.0105 44.8243 53.9608 48.4985L54.0045 48.5193C53.4484 49.0494 52.7444 49.416 51.9477 49.5795Z" fill="#021B3A"/>
</g>
<defs>
<clipPath id="clip0">
<rect width="65" height="65" fill="white"/>
</clipPath>
</defs>
</svg>
